<svg xmlns="http://www.w3.org/2000/svg" xmlns:xlink="http://www.w3.org/1999/xlink" width="1024" zoomAndPan="magnify" viewBox="0 0 768 767.999994" height="1024" preserveAspectRatio="xMidYMid meet" version="1.0"><defs><clipPath id="5b266f4981"><path d="M 220 372 L 548 372 L 548 669.300781 L 220 669.300781 Z M 220 372 " clip-rule="nonzero"/></clipPath><clipPath id="7e96f406f2"><path d="M 268.800781 100.886719 L 499.199219 100.886719 L 499.199219 331.285156 L 268.800781 331.285156 Z M 268.800781 100.886719 " clip-rule="nonzero"/></clipPath><clipPath id="299b4e003c"><path d="M 384 100.886719 C 320.375 100.886719 268.800781 152.460938 268.800781 216.085938 C 268.800781 279.710938 320.375 331.285156 384 331.285156 C 447.625 331.285156 499.199219 279.710938 499.199219 216.085938 C 499.199219 152.460938 447.625 100.886719 384 100.886719 Z M 384 100.886719 " clip-rule="nonzero"/></clipPath><clipPath id="1ea70e7dc7"><path d="M 0.800781 0.886719 L 231.199219 0.886719 L 231.199219 231.285156 L 0.800781 231.285156 Z M 0.800781 0.886719 " clip-rule="nonzero"/></clipPath><clipPath id="50640852f2"><path d="M 116 0.886719 C 52.375 0.886719 0.800781 52.460938 0.800781 116.085938 C 0.800781 179.710938 52.375 231.285156 116 231.285156 C 179.625 231.285156 231.199219 179.710938 231.199219 116.085938 C 231.199219 52.460938 179.625 0.886719 116 0.886719 Z M 116 0.886719 " clip-rule="nonzero"/></clipPath><clipPath id="17d7e9e361"><rect x="0" width="232" y="0" height="232"/></clipPath></defs><g clip-path="url(#5b266f4981)"><path fill="#000000" d="M 334.828125 400.441406 C 356.695312 362.566406 411.367188 362.566406 433.234375 400.441406 L 539.40625 584.339844 C 561.277344 622.214844 533.941406 669.5625 490.203125 669.5625 L 277.859375 669.5625 C 234.121094 669.5625 206.789062 622.214844 228.65625 584.339844 Z M 334.828125 400.441406 " fill-opacity="1" fill-rule="nonzero"/></g><g clip-path="url(#7e96f406f2)"><g clip-path="url(#299b4e003c)"><g transform="matrix(1, 0, 0, 1, 268, 100)"><g clip-path="url(#17d7e9e361)"><g clip-path="url(#1ea70e7dc7)"><g clip-path="url(#50640852f2)"><path fill="#ff751f" d="M 0.800781 0.886719 L 231.199219 0.886719 L 231.199219 231.285156 L 0.800781 231.285156 Z M 0.800781 0.886719 " fill-opacity="1" fill-rule="nonzero"/></g></g></g></g></g></g></svg>