<svg xmlns="http://www.w3.org/2000/svg" xmlns:xlink="http://www.w3.org/1999/xlink" width="1024" zoomAndPan="magnify" viewBox="0 0 768 767.999994" height="1024" preserveAspectRatio="xMidYMid meet" version="1.0"><defs><clipPath id="b3d575b206"><path d="M 220 362.785156 L 548 362.785156 L 548 661 L 220 661 Z M 220 362.785156 " clip-rule="nonzero"/></clipPath><clipPath id="741335f479"><path d="M 268.800781 100.886719 L 499.199219 100.886719 L 499.199219 331.285156 L 268.800781 331.285156 Z M 268.800781 100.886719 " clip-rule="nonzero"/></clipPath><clipPath id="67d3aa5788"><path d="M 384 100.886719 C 320.375 100.886719 268.800781 152.460938 268.800781 216.085938 C 268.800781 279.710938 320.375 331.285156 384 331.285156 C 447.625 331.285156 499.199219 279.710938 499.199219 216.085938 C 499.199219 152.460938 447.625 100.886719 384 100.886719 Z M 384 100.886719 " clip-rule="nonzero"/></clipPath><clipPath id="09105e7f27"><path d="M 0.800781 0.886719 L 231.199219 0.886719 L 231.199219 231.285156 L 0.800781 231.285156 Z M 0.800781 0.886719 " clip-rule="nonzero"/></clipPath><clipPath id="3d9d9d7262"><path d="M 116 0.886719 C 52.375 0.886719 0.800781 52.460938 0.800781 116.085938 C 0.800781 179.710938 52.375 231.285156 116 231.285156 C 179.625 231.285156 231.199219 179.710938 231.199219 116.085938 C 231.199219 52.460938 179.625 0.886719 116 0.886719 Z M 116 0.886719 " clip-rule="nonzero"/></clipPath><clipPath id="5c5323881e"><rect x="0" width="232" y="0" height="232"/></clipPath></defs><g clip-path="url(#b3d575b206)"><path fill="#000000" d="M 433.167969 631.640625 C 411.300781 669.519531 356.628906 669.519531 334.761719 631.640625 L 281.675781 539.695312 L 228.585938 447.746094 C 206.71875 409.867188 234.054688 362.523438 277.792969 362.523438 L 490.136719 362.523438 C 533.875 362.523438 561.207031 409.867188 539.339844 447.746094 L 486.253906 539.695312 Z M 433.167969 631.640625 " fill-opacity="1" fill-rule="nonzero"/></g><g clip-path="url(#741335f479)"><g clip-path="url(#67d3aa5788)"><g transform="matrix(1, 0, 0, 1, 268, 100)"><g clip-path="url(#5c5323881e)"><g clip-path="url(#09105e7f27)"><g clip-path="url(#3d9d9d7262)"><path fill="#ff751f" d="M 0.800781 0.886719 L 231.199219 0.886719 L 231.199219 231.285156 L 0.800781 231.285156 Z M 0.800781 0.886719 " fill-opacity="1" fill-rule="nonzero"/></g></g></g></g></g></g></svg>