<svg xmlns="http://www.w3.org/2000/svg" viewBox="0 0 100 120">
  <defs>
    <style>.outline{fill:currentColor;opacity:0.08;stroke:currentColor;stroke-opacity:0.18;stroke-width:0.5}</style>
  </defs>
  <!-- Male front -->
  <g id="male-front">
    <path data-muscle="Chest" d="M 34 22 C 34 18 42 16 50 18 C 58 16 66 18 66 22 C 67 28 66 36 50 42 C 34 36 33 28 34 22 Z" stroke="#27272a" stroke-width="0.6"/>
    <path data-muscle="Shoulders" d="M 16 24 C 20 20 24 22 26 28 C 27 34 26 40 24 44 C 20 42 16 36 16 28 Z" stroke="#27272a" stroke-width="0.6"/>
    <path data-muscle="Shoulders" d="M 84 24 C 80 20 76 22 74 28 C 73 34 74 40 76 44 C 80 42 84 36 84 28 Z" stroke="#27272a" stroke-width="0.6"/>
    <path data-muscle="Biceps" d="M 24 42 C 22 44 22 52 24 58 C 26 64 28 64 28 60 L 28 44 C 28 40 26 40 24 42 Z" stroke="#27272a" stroke-width="0.6"/>
    <path data-muscle="Biceps" d="M 76 42 C 78 44 78 52 76 58 C 74 64 72 64 72 60 L 72 44 C 72 40 74 40 76 42 Z" stroke="#27272a" stroke-width="0.6"/>
    <path data-muscle="Core" d="M 36 42 C 36 44 36 66 36 70 C 38 72 62 72 64 70 C 64 66 64 44 64 42 C 62 40 38 40 36 42 Z" stroke="#27272a" stroke-width="0.6"/>
    <path data-muscle="Quads" d="M 40 70 C 38 74 38 88 39 96 C 40 100 43 102 46 102 L 46 72 L 42 70 C 41 70 40 70 Z" stroke="#27272a" stroke-width="0.6"/>
    <path data-muscle="Quads" d="M 60 70 C 62 74 62 88 61 96 C 60 100 57 102 54 102 L 54 72 L 58 70 C 59 70 60 70 Z" stroke="#27272a" stroke-width="0.6"/>
    <path data-muscle="Calves" d="M 42 94 C 40 98 40 108 42 114 C 44 117 47 117 48 116 L 48 96 C 47 94 45 94 42 94 Z" stroke="#27272a" stroke-width="0.6"/>
    <path data-muscle="Calves" d="M 58 94 C 60 98 60 108 58 114 C 56 117 53 117 52 116 L 52 96 C 53 94 55 94 58 94 Z" stroke="#27272a" stroke-width="0.6"/>
  </g>
  <!-- Male back -->
  <g id="male-back">
    <path data-muscle="Back" d="M 32 18 C 30 20 28 28 28 38 C 28 46 32 52 50 56 C 68 52 72 46 72 38 C 72 28 70 20 68 18 C 64 14 36 14 32 18 Z" stroke="#27272a" stroke-width="0.6"/>
    <path data-muscle="Back" d="M 30 48 C 28 52 28 62 30 72 C 32 78 50 82 70 72 C 72 62 72 52 70 48 C 66 44 34 44 30 48 Z" stroke="#27272a" stroke-width="0.6"/>
    <path data-muscle="Shoulders" d="M 16 26 C 18 22 22 24 24 30 C 25 36 24 42 22 46 C 18 44 14 36 14 28 Z" stroke="#27272a" stroke-width="0.6"/>
    <path data-muscle="Shoulders" d="M 84 26 C 82 22 78 24 76 30 C 75 36 76 42 78 46 C 82 44 86 36 86 28 Z" stroke="#27272a" stroke-width="0.6"/>
    <path data-muscle="Triceps" d="M 24 42 C 22 44 22 54 24 60 C 26 66 28 66 28 62 L 28 44 C 28 40 26 40 24 42 Z" stroke="#27272a" stroke-width="0.6"/>
    <path data-muscle="Triceps" d="M 76 42 C 78 44 78 54 76 60 C 74 66 72 66 72 62 L 72 44 C 72 40 74 40 76 42 Z" stroke="#27272a" stroke-width="0.6"/>
    <path data-muscle="Glutes" d="M 36 62 C 34 66 34 76 36 84 C 40 90 48 92 50 92 C 52 92 60 90 64 84 C 66 76 66 66 64 62 L 36 62 Z" stroke="#27272a" stroke-width="0.6"/>
    <path data-muscle="Hamstrings" d="M 40 84 C 38 86 38 98 40 106 C 42 110 45 112 47 112 L 47 86 C 45 84 42 84 40 84 Z" stroke="#27272a" stroke-width="0.6"/>
    <path data-muscle="Hamstrings" d="M 60 84 C 62 86 62 98 60 106 C 58 110 55 112 53 112 L 53 86 C 55 84 58 84 60 84 Z" stroke="#27272a" stroke-width="0.6"/>
    <path data-muscle="Calves" d="M 42 100 C 40 104 40 112 42 116 L 47 116 C 48 112 48 104 46 100 Z" stroke="#27272a" stroke-width="0.6"/>
    <path data-muscle="Calves" d="M 58 100 C 60 104 60 112 58 116 L 53 116 C 52 112 52 104 54 100 Z" stroke="#27272a" stroke-width="0.6"/>
  </g>
  <!-- Female front (same paths as male for now) -->
  <g id="female-front">
    <path data-muscle="Chest" d="M 34 22 C 34 18 42 16 50 18 C 58 16 66 18 66 22 C 67 28 66 36 50 42 C 34 36 33 28 34 22 Z" stroke="#27272a" stroke-width="0.6"/>
    <path data-muscle="Shoulders" d="M 16 24 C 20 20 24 22 26 28 C 27 34 26 40 24 44 C 20 42 16 36 16 28 Z" stroke="#27272a" stroke-width="0.6"/>
    <path data-muscle="Shoulders" d="M 84 24 C 80 20 76 22 74 28 C 73 34 74 40 76 44 C 80 42 84 36 84 28 Z" stroke="#27272a" stroke-width="0.6"/>
    <path data-muscle="Biceps" d="M 24 42 C 22 44 22 52 24 58 C 26 64 28 64 28 60 L 28 44 C 28 40 26 40 24 42 Z" stroke="#27272a" stroke-width="0.6"/>
    <path data-muscle="Biceps" d="M 76 42 C 78 44 78 52 76 58 C 74 64 72 64 72 60 L 72 44 C 72 40 74 40 76 42 Z" stroke="#27272a" stroke-width="0.6"/>
    <path data-muscle="Core" d="M 36 42 C 36 44 36 66 36 70 C 38 72 62 72 64 70 C 64 66 64 44 64 42 C 62 40 38 40 36 42 Z" stroke="#27272a" stroke-width="0.6"/>
    <path data-muscle="Quads" d="M 40 70 C 38 74 38 88 39 96 C 40 100 43 102 46 102 L 46 72 L 42 70 C 41 70 40 70 Z" stroke="#27272a" stroke-width="0.6"/>
    <path data-muscle="Quads" d="M 60 70 C 62 74 62 88 61 96 C 60 100 57 102 54 102 L 54 72 L 58 70 C 59 70 60 70 Z" stroke="#27272a" stroke-width="0.6"/>
    <path data-muscle="Calves" d="M 42 94 C 40 98 40 108 42 114 C 44 117 47 117 48 116 L 48 96 C 47 94 45 94 42 94 Z" stroke="#27272a" stroke-width="0.6"/>
    <path data-muscle="Calves" d="M 58 94 C 60 98 60 108 58 114 C 56 117 53 117 52 116 L 52 96 C 53 94 55 94 58 94 Z" stroke="#27272a" stroke-width="0.6"/>
  </g>
  <!-- Female back -->
  <g id="female-back">
    <path data-muscle="Back" d="M 32 18 C 30 20 28 28 28 38 C 28 46 32 52 50 56 C 68 52 72 46 72 38 C 72 28 70 20 68 18 C 64 14 36 14 32 18 Z" stroke="#27272a" stroke-width="0.6"/>
    <path data-muscle="Back" d="M 30 48 C 28 52 28 62 30 72 C 32 78 50 82 70 72 C 72 62 72 52 70 48 C 66 44 34 44 30 48 Z" stroke="#27272a" stroke-width="0.6"/>
    <path data-muscle="Shoulders" d="M 16 26 C 18 22 22 24 24 30 C 25 36 24 42 22 46 C 18 44 14 36 14 28 Z" stroke="#27272a" stroke-width="0.6"/>
    <path data-muscle="Shoulders" d="M 84 26 C 82 22 78 24 76 30 C 75 36 76 42 78 46 C 82 44 86 36 86 28 Z" stroke="#27272a" stroke-width="0.6"/>
    <path data-muscle="Triceps" d="M 24 42 C 22 44 22 54 24 60 C 26 66 28 66 28 62 L 28 44 C 28 40 26 40 24 42 Z" stroke="#27272a" stroke-width="0.6"/>
    <path data-muscle="Triceps" d="M 76 42 C 78 44 78 54 76 60 C 74 66 72 66 72 62 L 72 44 C 72 40 74 40 76 42 Z" stroke="#27272a" stroke-width="0.6"/>
    <path data-muscle="Glutes" d="M 36 62 C 34 66 34 76 36 84 C 40 90 48 92 50 92 C 52 92 60 90 64 84 C 66 76 66 66 64 62 L 36 62 Z" stroke="#27272a" stroke-width="0.6"/>
    <path data-muscle="Hamstrings" d="M 40 84 C 38 86 38 98 40 106 C 42 110 45 112 47 112 L 47 86 C 45 84 42 84 40 84 Z" stroke="#27272a" stroke-width="0.6"/>
    <path data-muscle="Hamstrings" d="M 60 84 C 62 86 62 98 60 106 C 58 110 55 112 53 112 L 53 86 C 55 84 58 84 60 84 Z" stroke="#27272a" stroke-width="0.6"/>
    <path data-muscle="Calves" d="M 42 100 C 40 104 40 112 42 116 L 47 116 C 48 112 48 104 46 100 Z" stroke="#27272a" stroke-width="0.6"/>
    <path data-muscle="Calves" d="M 58 100 C 60 104 60 112 58 116 L 53 116 C 52 112 52 104 54 100 Z" stroke="#27272a" stroke-width="0.6"/>
  </g>
</svg>
