<svg version="1.2" xmlns="http://www.w3.org/2000/svg" viewBox="0 0 290 145" width="290" height="145">
	<style>
		.s0 { opacity: 0; fill: none } 
		.s1 { opacity: 1;fill: #444645 } 
		.s2 { opacity: 1;fill: #727473 } 
		.s3 { opacity: 1;fill: #bbbdbc } 
		.s4 { opacity: 1;fill: #4d4e4d } 
		.s5 { opacity: 1;fill: #a7a8a7 } 
		.s6 { opacity: 1;fill: #848584 } 
		.s7 { fill: #626463 } 
	</style>
	<g id="Background">
		<path id="Path 0" class="s0" d="m0 72.5v72.5h290v-145h-290z"/>
		<path id="back" fill-rule="evenodd" class="s1" d="m223.81 144.71c1.28 0.24 3.08 0.23 4-0.02 0.93-0.25-0.11-0.45-2.31-0.44-2.2 0.01-2.96 0.22-1.69 0.46zm-116.81-120.71c0 1.1-0.71 2.67-1.57 3.5-1.42 1.36-1.37 1.5 0.5 1.5 1.7 0 2.07-0.63 2.07-3.5 0-1.93-0.22-3.5-0.5-3.5-0.28 0-0.5 0.9-0.5 2zm3.06 1.25c-0.05 3.23 0.25 3.76 2.19 3.79 1.78 0.04 2.01-0.22 1.07-1.25-0.65-0.71-1.63-2.42-2.19-3.79-0.94-2.35-1.01-2.28-1.07 1.25zm-70.89 1.73c-0.37 1.1-1.57 2.2-2.67 2.46-1.1 0.25-1.66 0.71-1.25 1.01 0.41 0.3 1.65 0.1 2.75-0.45 1.45-0.72 2.13-0.65 2.46 0.25 0.25 0.69 0.25-0.1-0.01-1.75-0.25-1.65-0.23-2.44 0.04-1.75 0.28 0.69 0.96 1.02 1.51 0.75 0.55-0.28 1-0.95 1-1.5 0-0.55-0.71-1-1.58-1-0.86 0-1.88 0.89-2.25 1.98zm6.83 3.02c0 0.55 0.67 1 1.5 1 0.83 0 1.27-0.45 1-1-0.27-0.55-0.95-1-1.5-1-0.55 0-1 0.45-1 1zm-17.64 1.28c-1.07 0.55-2.28 1.73-2.68 2.61-0.4 0.89-0.38 2.43 0.04 3.43 0.43 0.99 1.46 1.67 2.28 1.49 0.83-0.18 1.66-1.45 1.86-2.82 0.21-1.37 1.11-2.98 2-3.59 1.49-1 1.5-1.14 0.04-1.61-0.88-0.28-2.47-0.06-3.54 0.49zm73.69-0.6c-0.05 0.45 0.6 2.84 1.44 5.32 1.22 3.57 1.27 4.65 0.27 5.23-0.69 0.41-2.27 0.75-3.51 0.75-1.99 0.02-2.18 0.39-1.65 3.27 0.33 1.79 1.01 4.94 1.5 7 0.63 2.62 0.52 4.5-0.35 6.24-0.69 1.37-0.91 2.72-0.5 3 0.41 0.28 1.25 0.17 1.86-0.24 0.61-0.41 0.84-1.54 0.5-2.5-0.35-1.01-0.19-1.54 0.39-1.25 0.55 0.27 1.94-1.86 3.09-4.75 1.65-4.14 1.86-5.72 1-7.5-0.6-1.24-1.1-2.59-1.11-3-0.01-0.41 0.61 0.15 1.37 1.25 1.29 1.86 1.42 1.69 1.98-2.5 0.33-2.48 0.25-5.85-0.18-7.5-0.58-2.23-1.45-3.08-3.39-3.32-1.44-0.17-2.66 0.05-2.71 0.5zm8.45-0.01c-0.46 0.36-0.74 4.08-0.63 8.25l0.21 7.58c2.49-4.65 3.94-8.35 4.82-11.22l1.6-5.22c-4-0.05-5.54 0.24-6 0.61zm-58.35 2.05c0.9 0.98 1.8 2.64 2 3.7 0.19 1.05 0.91 2.06 1.6 2.25 0.69 0.18 1.68-0.46 2.21-1.42 0.66-1.22 0.51-2.44-0.5-4-0.92-1.41-2.48-2.26-4.21-2.28-2.59-0.03-2.65 0.07-1.1 1.75zm41.92 0.24c-1.14 1.12-2.08 2.6-2.08 3.29-0.01 0.69 0.33 2.73 0.75 4.54 0.48 2.07 1.22 3.09 2.01 2.75 0.89-0.39 0.82 0.25-0.24 2.21-0.83 1.51-1.46 3.65-1.42 4.75 0.05 1.36 0.67 0.71 1.91-2 1.2-2.61 1.6-4.97 1.17-6.79-0.47-1.96-1.11-2.6-2.17-2.17-1.33 0.55-1.33 0.41 0-1.21 0.83-1.01 2.06-2.84 2.75-4.08 0.73-1.32 0.86-2.47 0.32-2.79-0.51-0.29-1.86 0.38-3 1.5zm26.6-1.46c-0.37 0.27 0.23 2.07 1.33 4 1.1 1.92 2.45 3.5 3 3.5 0.55 0 1.01-1.01 1.03-2.25 0.02-1.24-0.77-3.03-1.75-3.97-0.98-0.95-2.04-1.74-2.36-1.75-0.32-0.02-0.89 0.19-1.25 0.47zm-88.17 2.07c-0.9 0.87-1.6 2.55-1.56 3.75 0.05 1.2 0.51 2.85 1.02 3.68 0.57 0.92 0.56 1.98-0.02 2.75-0.59 0.79-0.57 1.43 0.06 1.75 0.55 0.27 0.89-0.06 0.75-0.75-0.14-0.72 1.01-1.39 2.75-1.59 1.65-0.18 3.58-0.86 4.29-1.5 0.72-0.64 1.28-2.4 1.25-3.91-0.02-1.51-0.26-3.43-0.54-4.25-0.29-0.88-1.71-1.5-3.43-1.5-1.61 0-3.67 0.71-4.57 1.57zm10.93-0.32c-0.29 0.69-0.39 3.04-0.23 5.24 0.28 3.75 0.51 4.02 3.94 4.5 2 0.28 3.46 0.17 3.25-0.24-0.22-0.41 0.06-0.98 0.61-1.25 0.55-0.28 1-2.08 1-4 0-2.5-0.57-3.79-2-4.5-1.1-0.55-2.91-1-4.02-1-1.12 0-2.26 0.56-2.55 1.25zm206.15 0.25c-0.32 0.82-0.13 1.72 0.42 2 0.55 0.27 1-0.4 1-1.5 0-1.1-0.19-2-0.42-2-0.22 0-0.67 0.67-1 1.5zm-151.32 0.27c-0.96 0.57-0.9 1.23 0.25 2.98 0.82 1.24 2.16 2.25 2.99 2.25 0.82 0 1.49-0.34 1.49-0.75-0.01-0.41-0.24-1.76-0.5-3-0.27-1.24-1.05-2.24-1.74-2.23-0.69 0-1.81 0.34-2.49 0.75zm17.68 1.98c-0.56 1.51-0.78 3.31-0.48 4 0.3 0.69 1.44 1.25 2.54 1.25 1.1 0 2.54-1.01 3.2-2.25 1.19-2.23 1.18-2.24-1.25-0.49-1.35 0.96-2.79 1.75-3.2 1.75-0.41-0.01 0.49-1.13 2-2.49 2.33-2.1 2.52-2.64 1.25-3.49-0.83-0.55-1.85-1.01-2.27-1.01-0.42-0.01-1.23 1.22-1.79 2.73zm131.98 5.37l2.58 5.38c0.42-6.98 0.42-9.08 0.27-9.17-0.15-0.09-1.43-0.49-2.85-0.88l-2.59-0.71zm7.16-4.09c-2.08 0.77-2.41 1.5-2.25 4.94 0.1 2.22 0.51 3.87 0.93 3.68 0.41-0.2 1.98-2.45 3.5-5 1.68-2.85 2.26-4.62 1.5-4.59-0.69 0.04-2.35 0.47-3.68 0.97zm-157.99 1.42c-0.04 0.85 0.48 1.82 1.17 2.14 0.68 0.33 1.77 0.44 2.4 0.25 0.66-0.19 0.16-1.12-1.16-2.14-2-1.54-2.33-1.58-2.41-0.25zm142.86 0.49c-0.62 1.06-1.09 2.52-1.06 3.25 0.04 0.8 1.05 0.34 2.62-1.19 1.4-1.37 2.54-2.84 2.52-3.25-0.01-0.41-0.69-0.75-1.49-0.75-0.81 0-1.98 0.87-2.59 1.94zm21.06-1.44c0 0.28 0.91 1.74 2.03 3.25 1.54 2.08 2.03 2.32 2 1-0.02-0.96-0.26-2.42-0.53-3.25-0.28-0.82-1.18-1.5-2-1.5-0.83 0-1.5 0.23-1.5 0.5zm-78.97 2.5c-0.57 1.1-0.77 2.34-0.45 2.75 0.32 0.41 1.23-0.15 2.02-1.25 0.79-1.1 1.42-2.34 1.41-2.75-0.01-0.41-0.45-0.75-0.98-0.75-0.54 0-1.44 0.9-2 2zm17.91-1c-0.02 0.83 0.67 2.18 1.54 3 0.86 0.83 1.89 1.15 2.29 0.72 0.4-0.42-0.29-1.77-1.53-3-1.7-1.67-2.27-1.85-2.3-0.72zm-77.29 0.75c-0.36 0.69-0.09 1.95 0.6 2.8 0.68 0.84 1.58 1.52 2 1.5 0.41-0.03 0.75-0.39 0.76-0.8 0.01-0.41-0.59-1.65-1.35-2.75-0.98-1.44-1.54-1.65-2.01-0.75zm-94.18 3.5l-0.74 3.25c-1.31-5.97-1.33-5.98-2.52-3.75-0.67 1.24-1.23 3.26-1.26 4.5-0.04 2.04 0.12 2.11 1.65 0.75 1.55-1.37 1.63-1.29 0.95 1l-0.74 2.5c2.47-3.49 3.43-6.07 3.73-8 0.31-1.92 0.35-3.5 0.11-3.5-0.24 0-0.77 1.46-1.18 3.25zm156.99-1.42c-1 1.01-1.76 2.47-1.68 3.25 0.07 0.78 1.39 2.03 2.93 2.78 1.53 0.75 3.35 1.08 4.04 0.75 0.68-0.34 1.25-1.73 1.25-3.11 0-1.37-0.23-3.17-0.5-4-0.28-0.82-1.34-1.5-2.36-1.5-1.01 0-2.67 0.82-3.68 1.83zm7.54 2.17c0 2.2 0.45 4.23 1 4.5 0.55 0.28 2.35 0.05 4-0.5 1.65-0.55 3-1.56 3-2.25 0.01-0.69-0.67-2.26-1.5-3.5-0.89-1.33-2.52-2.25-4-2.25-2.25 0-2.5 0.4-2.5 4zm50.5-3.33c-0.46 0.36-0.76 1.04-0.67 1.5 0.09 0.46 1.07 0.83 2.17 0.83q2 0 1.5-1.5c-0.28-0.82-0.88-1.5-1.34-1.5-0.45 0-1.2 0.3-1.66 0.67zm15 0c-0.46 0.36-0.76 1.04-0.67 1.5 0.09 0.46 0.84 0.83 1.67 0.83 0.82 0 1.5-0.67 1.5-1.5 0-0.82-0.38-1.5-0.84-1.5-0.45 0-1.2 0.3-1.66 0.67zm-204.68 2.83c0.48 1.65 1.39 4.01 2.02 5.25 0.64 1.24 1.38 2.25 1.66 2.25 0.27 0-0.25-1.91-1.15-4.25-0.91-2.34-2.04-4.7-2.52-5.25-0.49-0.56-0.49 0.3-0.01 2zm2.78-1.34c-0.47 0.77-0.24 2.53 0.54 4.13 0.75 1.53 1.81 2.78 2.36 2.77 0.62-0.01 0.7-1.25 0.21-3.29-0.43-1.8-1.12-3.65-1.53-4.11-0.42-0.46-1.13-0.23-1.58 0.5zm55.81 2.25c-0.95 2.59-0.79 3.93 0.98 8.26 1.16 2.84 2.53 4.86 3.04 4.5 0.55-0.4 0.66 0.25 0.25 1.58-0.47 1.56-0.22 2.4 0.82 2.75 0.95 0.32 1.5-0.14 1.51-1.25 0.01-0.96-0.41-2.2-0.93-2.75-0.61-0.63-0.44-3.37 0.45-7.5 0.77-3.57 1.32-6.79 1.23-7.14-0.09-0.35-1.52-0.84-3.19-1.09-2.63-0.4-3.16-0.07-4.16 2.64zm-74.47-0.13c-1.41 0.61-2.27 1.77-2.15 2.87 0.11 1.02 0.77 1.87 1.46 1.9 0.68 0.02 1.81-0.66 2.5-1.5 0.68-0.85 1.09-2.17 0.89-2.93-0.27-1.05-0.9-1.13-2.7-0.34zm5.11 1.19c-0.03 1.39 0.17 2.53 0.45 2.53 0.27 0 1.17 0.23 2 0.5 0.98 0.33 1.52-0.17 1.55-1.46 0.04-1.08-0.84-2.45-1.94-3.04-1.75-0.94-2-0.75-2.06 1.47zm79.15-0.84c-0.14 0.48 0.41 2.45 1.23 4.37l1.49 3.5c0.43-4.97-0.07-6.76-0.96-7.5-0.82-0.68-1.61-0.85-1.76-0.37zm118.3 0.04c-0.46 0.36-0.76 2.16-0.67 4 0.09 1.83 0.62 3.33 1.17 3.33 0.55 0 1-1.8 1-4 0-2.2-0.15-4-0.34-4-0.18 0-0.7 0.3-1.16 0.67zm22.09 1.83c-0.33 1.38-0.17 3.51 0.34 4.75 0.78 1.86 0.95 1.42 1-2.5 0.04-2.61-0.12-4.75-0.34-4.75-0.23 0-0.68 1.13-1 2.5zm-212.72-1.25c-0.07 0.14-0.18 1.26-0.25 2.5-0.07 1.23 0.21 2.24 0.63 2.25 0.41 0 0.97-0.67 1.25-1.5 0.27-0.82 0.05-1.27-0.5-1-0.55 0.28-1 0.05-1-0.5 0-0.55 0.56-1.19 1.25-1.42 1-0.34 1-0.44 0-0.5-0.69-0.04-1.31 0.03-1.38 0.17zm41.17 2.75c0.08 3.33 0.13 3.38 1.04 1q0.95-2.49-0.08-3.5c-0.71-0.68-1.01 0.11-0.96 2.5zm35.15-0.5c0.03 1.9 0.2 2.27 0.49 1 0.24-1.1 0.23-2.45-0.04-3-0.27-0.55-0.47 0.35-0.45 2zm53.28-1c-0.26 0.83-0.7 2.18-0.97 3-0.28 0.83-0.05 1.73 0.5 2 0.55 0.28 1.45-0.4 2-1.5 0.55-1.1 1-2.67 1-3.5 0-0.82-0.46-1.5-1.03-1.5-0.56 0-1.24 0.68-1.5 1.5zm23.2 1c0.18 1.38 0.55 2.5 0.83 2.5 0.27 0 0.5-1.12 0.5-2.5 0-1.37-0.38-2.5-0.83-2.5-0.46 0-0.69 1.13-0.5 2.5zm42.39 0.75c0.45 1.79 1.21 4.83 1.69 6.75l0.89 3.5c3.37-5.42 4.37-7.22 4.39-7.5 0.02-0.27-0.88-1.74-2-3.25-1.12-1.51-2.88-2.75-3.9-2.75-1.62 0-1.76 0.45-1.07 3.25zm9.91-0.93c-1.29 1.27-2.28 3.18-2.2 4.25 0.09 1.06 1.08 2.72 2.19 3.68 1.12 0.96 2.2 1.41 2.41 1 0.2-0.41 0.7-2.55 1.1-4.75 0.41-2.2 0.82-4.56 0.91-5.25 0.09-0.69-0.33-1.25-0.94-1.25-0.61 0-2.17 1.04-3.47 2.32zm-221.77 3.68c-0.11 1.1 0.13 2 0.55 2 0.41 0.01 0.8-0.89 0.87-2 0.07-1.1-0.18-2-0.55-2-0.37 0-0.77 0.9-0.87 2zm4.8-0.8c-0.77 0.66-1.31 1.56-1.2 2 0.11 0.44 1.1 0.8 2.2 0.8q2 0 2-2c0-1.1-0.36-2-0.8-2-0.44 0-1.43 0.54-2.2 1.2zm4.34 0.3c0.36 0.83 0.66 1.73 0.66 2 0 0.28 0.9 0.5 2 0.5 1.1 0 2-0.45 2-1 0-0.55-0.9-1.45-2-2-1.1-0.55-2.3-1-2.66-1-0.36 0-0.36 0.68 0 1.5zm17.64 1.25c0.01 1.24 0.92 4.73 2.02 7.75 1.1 3.03 2.2 5.39 2.44 5.25 0.24-0.14-0.09-3.03-0.75-6.42-0.66-3.4-1.76-6.77-2.46-7.5-1.04-1.09-1.26-0.93-1.25 0.92zm45.17 3.25l-2.34 5.5c4.66 3.39 4.69 3.37 5 0.2 0.17-1.76 0.17-5 0-7.2l-0.31-4zm4.84 2v7c3.88-2.32 4.99-3.56 4.98-4.25-0.01-0.69-0.91-3.16-2-5.5-1.09-2.34-2.2-4.25-2.48-4.25-0.27 0-0.5 3.15-0.5 7zm78.55-6c-0.3 0.55 0.13 1 0.95 1 0.83 0 1.5-0.45 1.5-1 0-0.55-0.43-1-0.95-1-0.52 0-1.2 0.45-1.5 1zm-166.9 1c-0.39 0.83-1.32 4.43-2.07 8-0.75 3.58-1.3 6.61-1.22 6.75 0.08 0.14 1.18-2.34 2.46-5.5 1.27-3.16 2.14-6.87 1.92-8.25-0.29-1.84-0.57-2.11-1.09-1zm26.9 0c-0.3 0.55-0.1 2.13 0.45 3.5q1 2.5 0 3c-0.55 0.28-1.02 1.96-1.04 3.75-0.04 2.93 0.11 3.1 1.53 1.75 1.15-1.09 1.52-3.08 1.36-7.25-0.12-3.16-0.56-5.75-0.99-5.75-0.42 0-1.01 0.45-1.31 1zm78.57 2.75c-0.07 1.24-0.57 2.03-1.12 1.75-0.58-0.29-0.73 0.23-0.36 1.25 0.61 1.67 0.68 1.67 1.5 0 0.47-0.96 0.69-2.54 0.48-3.5-0.28-1.24-0.42-1.09-0.5 0.5zm61.38-1.08c-0.46 0.36-0.76 1.04-0.67 1.5 0.1 0.46 0.85 0.83 1.67 0.83 0.83 0 1.5-0.67 1.5-1.5 0-0.82-0.37-1.5-0.83-1.5-0.46 0-1.21 0.3-1.67 0.67zm5.62 0.75c-0.07 0.87 0.56 1.58 1.38 1.58 0.83 0 1.34-0.56 1.15-1.25-0.19-0.69-0.81-1.4-1.38-1.58-0.57-0.19-1.09 0.38-1.15 1.25zm-160.91 0.73c0.06 0.74-0.25 2.25-0.68 3.35-0.48 1.23-0.25 2.87 0.6 4.28 0.75 1.25 1.71 2.26 2.12 2.25 0.41-0.02 0.51-0.82 0.22-1.78-0.28-0.96-0.5-3.23-0.48-5.03 0.02-1.81-0.39-3.54-0.92-3.86-0.53-0.31-0.91 0.05-0.86 0.79zm3.79 0.85q0 2 2 2 2 0 2-2 0-2-2-2-2 0-2 2zm5.51-0.8c-0.4 0.71-0.24 1.75 0.35 2.3 0.59 0.55 1.76 0.66 2.6 0.25 0.85-0.41 1.39-1.31 1.21-2-0.19-0.69-1.03-1.39-1.88-1.55-0.86-0.17-1.88 0.28-2.28 1zm86.65 3.3c-0.07 2.2 0.26 4.68 0.74 5.5 0.69 1.19 0.98 0.99 1.43-1 0.32-1.37 0.36-2.72 0.09-3-0.26-0.27-0.53 0.18-0.59 1-0.06 0.83-0.44-0.3-0.83-2.5l-0.72-4zm47.11-2.25c-0.52 0.69-1.25 2.04-1.61 3-0.36 0.96-0.43 1.75-0.15 1.75 0.27 0 1.14-1.35 1.92-3 0.78-1.65 1.28-3 1.11-3-0.17 0-0.74 0.56-1.27 1.25zm22.01 3.75c0 2.48 0.19 3.38 0.43 2 0.24-1.37 0.24-3.4 0-4.5-0.24-1.1-0.43 0.03-0.43 2.5zm-110.23 0c0.08 3.33 0.13 3.38 1.04 1q0.95-2.49-0.08-3.5c-0.71-0.68-1.01 0.11-0.96 2.5zm99.96-2c0 0.55 0.67 1 1.5 1 0.82 0 1.5-0.45 1.5-1 0-0.55-0.68-1-1.5-1-0.83 0-1.5 0.45-1.5 1zm6 0c0 0.55 0.67 1 1.5 1 0.82 0 1.5-0.45 1.5-1 0-0.55-0.68-1-1.5-1-0.83 0-1.5 0.45-1.5 1zm43.47 0.5c-0.26 0.83-0.92 1.28-1.47 1-0.6-0.3-0.71 0.2-0.27 1.25 0.57 1.39 0.42 1.55-0.75 0.76-1.16-0.78-1.29-0.67-0.59 0.5 0.74 1.24 1.2 1.07 2.72-1.01 1.02-1.37 1.85-2.84 1.86-3.25 0.02-0.41-0.21-0.75-0.5-0.75-0.29 0-0.74 0.68-1 1.5zm11.53-0.3c-0.77 0.66-1.33 1.67-1.25 2.25 0.09 0.58 0.87 1.73 1.75 2.55 1.43 1.36 1.58 1.14 1.54-2.25-0.02-2.06-0.18-3.75-0.34-3.75-0.17 0-0.93 0.54-1.7 1.2zm3.99 2.55l-0.01 3.75c4.28-4.16 4.36-4.56 3.02-5.99-0.83-0.88-1.84-1.58-2.25-1.55-0.42 0.02-0.76 1.73-0.76 3.79zm-66.76 0.25c0 1.93 0.2 2.83 0.46 2 0.25-0.82 0.25-2.4 0-3.5-0.26-1.1-0.46-0.42-0.46 1.5zm-149.23 0.5c0 1.38 0.67 4.08 1.5 6 0.82 1.93 1.72 3.5 2 3.5 0.27 0 0.5-2.7 0.5-6 0-5.33-0.23-6-2-6-1.47 0-2 0.67-2 2.5zm5 3.5c0 3.33 0.44 6 1 6 0.55 0 1.38-1.01 1.86-2.25 0.47-1.24 1.14-3.94 1.5-6 0.59-3.5 0.47-3.75-1.86-3.75-2.39 0-2.5 0.27-2.5 6zm146-2.72c0.05 1.22 0.71 3.57 1.46 5.22l1.37 3c0.06-7.87-0.38-9.46-1.43-9.86-1.06-0.41-1.47 0.06-1.4 1.64zm7.32-1.47c-0.56 0.38-1.31 2.38-1.67 4.44-0.39 2.27-0.26 3.75 0.35 3.75 0.55 0 1.39-1.84 1.87-4.1 0.48-2.26 0.78-4.26 0.67-4.45-0.11-0.19-0.66-0.03-1.22 0.36zm-95.29 3.19c-0.57 1.1-0.7 1.99-0.28 1.97 0.41-0.02 1.52-0.58 2.46-1.25 0.94-0.67 1.73-1.56 1.75-1.97 0.02-0.41-0.63-0.75-1.43-0.75-0.81 0-1.94 0.9-2.5 2zm13.94-1.25c-0.02 0.41 1.11 1.31 2.5 2 1.39 0.69 2.53 0.91 2.54 0.5 0.01-0.41-0.55-1.32-1.25-2.02-0.69-0.69-1.83-1.25-2.51-1.25-0.69 0.01-1.27 0.36-1.28 0.77zm-12.42 3.32c-1.57 1.19-2.72 3.01-2.69 4.25 0.03 1.2 0.86 3.19 1.84 4.42 0.99 1.24 2.9 2.36 4.25 2.5 2.2 0.23 2.53-0.23 3.25-4.49 0.48-2.87 0.4-5.54-0.2-6.75-0.55-1.1-1.61-2-2.35-2-0.74 0-2.58 0.93-4.1 2.07zm8.72-0.69c-0.38 0.76-0.48 3.57-0.23 6.25 0.4 4.31 0.75 4.9 2.96 5.16 1.4 0.16 3.28-0.49 4.28-1.5 1-1 1.77-3.22 1.75-5.04-0.03-2.59-0.64-3.55-3.03-4.75-1.65-0.82-3.46-1.5-4.03-1.5-0.56 0-1.33 0.62-1.7 1.38zm133.15-0.2c-0.36 0.65-0.84 2.57-1.06 4.25-0.22 1.69-0.5 4.46-0.63 6.15-0.16 2.18 0.21 3.09 1.27 3.09 0.82 0 2.85-0.75 4.5-1.66 2.49-1.39 3.04-2.37 3.25-5.84 0.19-3.15-0.12-4.17-1.25-4.17-0.83 0-2.4 0.45-3.5 1-1.1 0.55-2.34 0.79-2.75 0.53-0.42-0.26 0.47-1.05 1.96-1.75 1.49-0.7 2.5-1.62 2.25-2.03-0.26-0.41-1.12-0.75-1.91-0.75-0.8 0-1.76 0.53-2.13 1.18zm13.2-0.43c-0.25 0.41 0.85 1.54 2.46 2.5 1.6 0.96 2.92 1.3 2.92 0.75 0-0.55-0.23-1.67-0.5-2.5-0.28-0.82-1.38-1.5-2.45-1.5-1.08 0-2.17 0.34-2.43 0.75zm-220.35 6.5c1.22 3.16 2.56 5.75 2.98 5.75 0.41 0 0.26-1.46-0.33-3.25-0.59-1.79-1.93-4.37-2.98-5.75-1.69-2.22-1.65-1.86 0.33 3.25zm9.69-0.29c-1.14 2.18-2.06 4.54-2.05 5.25 0.02 0.71 0.38 0.91 0.81 0.45 0.43-0.47 1.48-2.83 2.35-5.25 0.86-2.43 1.43-4.41 1.26-4.41-0.16 0-1.23 1.78-2.37 3.96zm153.28 3.04c-1.45 4.84-2.2 9.81-2.12 14 0.11 5.86 0.2 6.11 0.84 2.5 0.39-2.2 1.48-6.47 2.41-9.5 0.93-3.02 1.57-7.52 1.41-10l-0.28-4.5zm53.75-3c0 3.67 0.33 4.17 4 6l4 2c1.71-3.49 1.93-5.51 1.6-6.75-0.33-1.24-1.95-2.92-3.6-3.75-1.65-0.82-3.68-1.5-4.5-1.5-1.08 0-1.5 1.11-1.5 4zm-203.22 3.25c-0.94 3.44-1.78 7.15-1.86 8.25-0.08 1.1-0.11 4.03-0.05 6.5 0.06 2.85 0.44 4.13 1.04 3.5 0.51-0.55 1.64-3.7 2.49-7 0.86-3.3 1.56-8.02 1.57-10.5 0-2.47-0.33-5.06-0.74-5.75-0.43-0.74-1.42 1.28-2.45 5zm133.28-2.25c-0.04 2.48 1.06 8.1 2.45 12.5l2.53 8c-0.77-10.85-1.88-16.47-2.95-19.5l-1.94-5.5zm46.1-2.25c-0.76 1.46-0.82 2.43-0.17 2.75 0.55 0.28 1.27-0.06 1.59-0.75 0.33-0.69 0.4-1.92 0.17-2.75-0.32-1.13-0.71-0.95-1.59 0.75zm43.83 0.25c0 1.1 0.45 2.23 1 2.5 0.55 0.28 1.23 0.05 1.5-0.5 0.28-0.55 0.28-1.67 0-2.5-0.27-0.82-0.95-1.5-1.5-1.5-0.55 0-1 0.9-1 2zm-242.39 1.25c-0.32 1.24-0.58 3.15-0.59 4.25 0 1.1 0.95 5.6 2.11 10 1.49 5.67 2.36 7.56 2.97 6.5 0.48-0.82 0.88-3.41 0.89-5.75 0-2.34-0.65-7.17-1.45-10.75-0.8-3.57-1.88-6.5-2.4-6.5-0.52 0-1.21 1.01-1.53 2.25zm184.42-0.25q-1.01 1.99-0.03 2c0.55 0 1.15-0.9 1.33-2 0.19-1.1 0.2-2 0.03-2-0.17 0-0.77 0.9-1.33 2zm-199.86 1.25c0.22 1.47 1.11 2.34 2.58 2.5 1.8 0.2 2.25-0.25 2.25-2.25 0-2.02-0.49-2.5-2.58-2.5-2.1 0-2.52 0.41-2.25 2.25zm48.5 0.25c0.23 1.72 0.95 2.5 2.33 2.5 1.1 0 2.34-0.71 2.75-1.59 0.47-0.99 0.19-1.92-0.75-2.48-0.82-0.49-2.21-0.91-3.08-0.91-1.11-0.01-1.48 0.72-1.25 2.48zm21.83-1.83c-0.46 0.36-0.76 1.49-0.67 2.5 0.1 1.01 0.62 1.83 1.17 1.83 0.55 0 1-1.12 1-2.5 0-1.37-0.15-2.5-0.33-2.5-0.19 0-0.71 0.3-1.17 0.67zm45.5 1.83c0 1.38 0.45 2.5 1 2.5 0.55 0 1-1.12 1-2.5 0-1.37-0.45-2.5-1-2.5-0.55 0-1 1.13-1 2.5zm-95.29 3c0.35 1.65 1.22 5.03 1.94 7.5l1.3 4.5c-0.91-6.97-1.78-10.35-2.52-12l-1.35-3zm10.29 3.5c-0.63 3.03-1 5.59-0.82 5.71 0.18 0.11 0.84-2.1 1.48-4.9 0.63-2.81 1-5.38 0.82-5.71-0.18-0.33-0.84 1.88-1.48 4.9zm51.12-0.5c-0.05 1.65 0.35 3.68 0.88 4.5 0.8 1.24 0.96 1.15 0.89-0.5-0.05-1.1-0.45-3.12-0.89-4.5-0.78-2.45-0.8-2.44-0.88 0.5zm98.59-1.04c-0.39 0.85-0.68 2.1-0.64 2.79 0.03 0.69 0.38 0.17 0.77-1.14 0.4-1.32 0.69-2.58 0.65-2.8-0.03-0.22-0.38 0.3-0.78 1.15zm-95.53 8.23c-0.03 5.77 0.26 8.12 0.82 6.81 0.48-1.1 0.94-4.78 1.03-8.19 0.1-3.41-0.27-6.47-0.82-6.81-0.64-0.39-1.01 2.58-1.03 8.19zm16.32-8.02c-0.46 0.36-0.75 2.73-0.64 5.25 0.1 2.52 0.79 6.83 1.54 9.58 1.33 4.9 1.35 4.8 0.84-5-0.28-5.5-0.6-10.11-0.71-10.25-0.1-0.14-0.57 0.05-1.03 0.42zm3.78 3.33c0 2.48 0.19 3.38 0.43 2 0.24-1.37 0.24-3.4 0-4.5-0.24-1.1-0.43 0.03-0.43 2.5zm67.9-3.31c-0.02 0.45 0.35 1.71 0.82 2.81 0.83 1.94 0.87 1.93 1.03-0.19 0.1-1.21-0.27-2.47-0.82-2.81-0.55-0.34-1.02-0.25-1.03 0.19zm60.37 0.31c-0.3 0.55-0.27 3.14 0.07 5.75 0.43 3.37 0.86 4.31 1.48 3.25 0.48-0.82 0.88-3.41 0.89-5.75 0.01-2.34-0.41-4.25-0.94-4.25-0.52 0-1.2 0.45-1.5 1zm4.87 0.69c-0.38 0.99-0.38 3.61 0.01 5.81 0.39 2.2 1 4.45 1.36 5 0.35 0.55 0.66 1.86 0.68 2.91 0.02 1.05 0.6 2.07 1.28 2.25 0.7 0.19 1.5-0.88 1.82-2.41 0.3-1.51 0.26-5-0.11-7.75-0.47-3.56-0.92-4.57-1.54-3.5-0.7 1.18-0.87 1.03-0.8-0.69 0.05-1.21-0.38-2.47-0.95-2.81-0.57-0.35-1.36 0.19-1.75 1.19zm-52.77 5.31c-1.02 3.58-1.65 7.18-1.41 8 0.25 0.83 1.23-1.2 2.18-4.5 0.94-3.3 1.57-6.9 1.4-8-0.18-1.13-1.13 0.83-2.17 4.5zm-95.1-3.5c0.25 0.83 0.9 1.5 1.45 1.5 0.55 0 1-0.67 1-1.5 0-0.82-0.65-1.5-1.45-1.5-0.83 0-1.26 0.65-1 1.5zm5.08 0.5c0.2 1.1 0.6 2 0.87 2 0.28 0 0.73-0.9 1-2 0.32-1.27 0-2-0.87-2-0.84 0-1.23 0.79-1 2zm71.46-0.5c-0.03 1.1 0.58 4.25 1.34 7 0.9 3.23 1.42 4.12 1.47 2.5 0.04-1.37-0.57-4.52-1.35-7-0.77-2.47-1.43-3.6-1.46-2.5zm79.62-0.04c-0.41 0.89-1.22 1.23-1.92 0.79-0.88-0.55-1.02-0.08-0.51 1.75 0.38 1.38 0.75 3.85 0.81 5.5 0.08 2.09 0.52 1.18 1.43-3 0.72-3.3 1.22-6.13 1.11-6.29-0.11-0.16-0.52 0.4-0.92 1.25zm-148.23 1.79c-0.31 1.24-0.14 4.05 0.38 6.25 0.93 3.94 0.94 3.9 1.04-2.25 0.06-3.44-0.11-6.25-0.38-6.25-0.27 0-0.74 1.01-1.04 2.25zm129.12 2.25c0.37 2.75 1.02 5.9 1.43 7q0.74 1.97 0.85-3.5c0.06-3.02 0.35-5.72 0.64-6 0.3-0.27 0.53 2.2 0.53 5.5-0.01 3.3 0.42 6.68 0.95 7.5 0.68 1.05 0.99-0.6 1.03-5.5 0.04-4.55-0.4-7.45-1.26-8.3-1.08-1.06-1.47-1.06-2.17 0-0.68 1.04-1.03 1-1.76-0.2-0.58-0.95-0.67 0.33-0.24 3.5zm-139.48 3.25c0.1 6.25 0.17 6.46 0.94 2.75 0.46-2.2 0.85-5.24 0.89-6.75 0.03-1.51-0.4-2.75-0.95-2.75-0.58 0-0.95 2.84-0.88 6.75zm85.83 2.25c0 3.03 0.35 5.13 0.78 4.67 0.42-0.45 0.65-2.7 0.49-5-0.15-2.29-0.5-4.39-0.77-4.67-0.28-0.27-0.5 1.98-0.5 5zm-142.67 0c0 2.48 0.19 3.38 0.43 2 0.24-1.37 0.24-3.4 0-4.5-0.24-1.1-0.43 0.03-0.43 2.5zm-15.19-1c-0.03 0.83 0.38 2.18 0.91 3 0.54 0.83 0.95 1.05 0.92 0.5-0.03-0.55-0.44-1.9-0.92-3q-0.85-1.98-0.91-0.5zm6.11 2.5c0.02 1.9 0.2 2.27 0.48 1 0.25-1.1 0.23-2.45-0.04-3-0.26-0.55-0.46 0.35-0.44 2zm157.28-1c-0.26 0.83-0.04 2.29 0.49 3.25 0.79 1.42 0.98 1.14 1-1.5 0.02-1.79-0.2-3.25-0.49-3.25-0.29 0-0.74 0.68-1 1.5zm-161.28 7.75c0.22 1.39 0.92 2.11 1.83 1.88 1.1-0.27 1.27 0.11 0.66 1.5-0.57 1.33-0.49 1.58 0.29 0.87 0.6-0.55 0.85-2.24 0.56-3.75-0.32-1.61-1.19-2.75-2.12-2.75-1.07 0-1.46 0.72-1.22 2.25zm14.65 0.74c-0.19 1.64-0.27 2.99-0.17 3 0.1 0.01 0.89-0.66 1.75-1.49 0.87-0.82 1.57-2.17 1.57-3 0-0.82-0.63-1.5-1.4-1.5-0.81 0-1.55 1.26-1.75 2.99zm138.9-0.49c-0.45 2.03-0.33 2.68 0.36 2 0.56-0.55 0.86-1.9 0.66-3-0.28-1.54-0.52-1.32-1.02 1zm9.25-1.5c0 0.55 0.45 1.23 1 1.5 0.55 0.28 1-0.17 1-1 0-0.82-0.45-1.5-1-1.5-0.55 0-1 0.45-1 1zm49.39 7c-0.83 5.53-0.83 8.03 0 9.5 0.95 1.72 1.16 1.29 1.42-3 0.17-2.75 0.17-7.02 0-9.5-0.29-4.19-0.38-3.98-1.42 3zm10.5-3.25c-0.59 1.51-1.32 5.45-1.61 8.75-0.36 4.17-0.21 5.7 0.52 5 0.58-0.55 1.36-4.15 1.74-8 0.38-3.85 0.85-7.34 1.04-7.75 0.19-0.41 0.13-0.75-0.13-0.75-0.27 0-0.97 1.24-1.56 2.75zm-156.86 0.25c-0.56 1.1-0.91 4.55-0.78 7.67 0.16 3.52 0.73 5.8 1.5 6 0.93 0.24 1.25-1.76 1.25-7.67 0-4.4-0.21-8-0.47-8-0.26 0-0.93 0.9-1.5 2zm3.09 6.5c-0.05 7.3 0.08 7.83 1.43 6 0.82-1.1 1.46-3.35 1.43-5-0.04-1.65-0.69-4.35-1.44-6-1.3-2.85-1.38-2.59-1.42 5zm12.41-5c-0.51 1.65-0.95 4.67-0.98 6.7-0.02 2.04 0.51 4.29 1.19 5 0.67 0.72 1.35 1.08 1.5 0.8 0.14-0.27 0.03-3.87-0.26-8-0.46-6.5-0.65-7.1-1.45-4.5zm3.49 4.75c-0.01 4.51 0.4 7.75 0.98 7.75 0.56 0 1-2.74 0.99-6.25-0.01-3.44-0.45-6.92-0.99-7.75-0.67-1.04-0.97 0.88-0.98 6.25zm-86.43-2.75c0.28 2.2 1.05 6.57 1.71 9.72 0.66 3.14 1.31 5.62 1.44 5.5 0.13-0.12-0.25-3.82-0.84-8.22-0.59-4.4-1.47-8.67-1.94-9.5-0.55-0.94-0.68-0.02-0.37 2.5zm19.34-2.25c-0.05 0.69-0.25 2.15-0.46 3.25-0.2 1.1-0.63 4.48-0.93 7.5-0.43 4.19-0.32 4.96 0.45 3.25 0.56-1.24 1.27-5.17 1.59-8.75 0.32-3.57 0.32-6.5 0-6.5-0.32 0-0.61 0.56-0.65 1.25zm197.2 4.25c-0.05 3.3 0.32 6.68 0.84 7.5 0.83 1.33 0.99 1.33 1.52 0 0.32-0.82-0.06-4.2-0.84-7.5l-1.43-6zm9.95-3c-0.08 1.65-0.35 4.69-0.61 6.75-0.25 2.06-0.01 3.98 0.54 4.25 0.55 0.28 1.25-0.51 1.55-1.75 0.31-1.24 0.14-4.5-0.38-7.25-0.72-3.78-0.98-4.27-1.1-2zm-222.35 1.75c-0.4 0.96-0.72 3.33-0.72 5.25 0 1.93 0.45 3.73 1 4 0.55 0.28 1.12-0.74 1.27-2.25 0.15-1.51 0.03-4.1-0.27-5.75-0.44-2.39-0.7-2.64-1.28-1.25zm153.49 6.25c0 7.1 0.11 7.55 0.92 4 0.55-2.43 0.55-5.57-0.01-8-0.82-3.55-0.92-3.1-0.91 4zm5.43-4.5c-0.47 1.93-0.57 5.75-0.21 8.5 0.35 2.75 1.02 5.68 1.48 6.5 0.72 1.29 0.92 1.25 1.46-0.25 0.35-0.96 0.18-1.75-0.37-1.75-0.57 0-1.11-3.58-1.25-8.25-0.21-6.95-0.39-7.7-1.11-4.75zm-148.54 1.25c0.05 1.79 0.42 4.38 0.81 5.75 0.62 2.16 0.8 1.89 1.31-2 0.33-2.47 0.41-5.06 0.19-5.75-0.23-0.69-0.86-1.25-1.41-1.25-0.55 0-0.96 1.46-0.9 3.25zm152.33 0.25c0.32 1.1 0.15 2.45-0.38 3-0.56 0.58-0.62 2.26-0.16 4l0.8 3c1.26-6.6 1.11-8.7 0.34-10l-1.18-2zm-146.76 6.25c-0.24 0.41-0.71 2.21-1.05 4q-0.62 3.26-1.87 2.59c-0.69-0.36-0.95-0.25-0.58 0.25 0.37 0.5 0.26 2.37-0.25 4.16-0.86 3.04-0.79 3.19 1.08 2.25 1.38-0.69 2-2 2-4.25 0-1.79 0.38-4.71 0.85-6.5 0.46-1.79 0.71-3.25 0.55-3.25-0.17 0-0.5 0.34-0.73 0.75zm48.04 6.41c0.31 2.94 0.74 5.57 0.95 5.84 0.22 0.28 0.43-1.83 0.47-4.69 0.04-2.86-0.39-5.48-0.96-5.84q-1.03-0.63-0.46 4.69zm2.29-0.16c0 2.2 0.22 4 0.5 4 0.27 0 0.61-1.8 0.75-4 0.14-2.2-0.09-4-0.5-4-0.41 0-0.75 1.8-0.75 4zm13.25-0.5c0.01 2.39 0.19 2.99 0.45 1.5 0.23-1.37 0.23-3.17-0.02-4-0.25-0.82-0.44 0.3-0.43 2.5zm2.3-2.93c-0.49 0.42-0.76 2.83-0.62 5.35l0.27 4.58c1.44-6.2 1.72-8.61 1.54-9.35-0.17-0.74-0.71-1-1.19-0.58zm131.64 1.93c0.03 1.9 0.2 2.27 0.49 1 0.24-1.1 0.23-2.45-0.04-3-0.27-0.55-0.47 0.35-0.45 2zm-2.51 3c0.3 2.75 0.04 6.69-0.57 8.75-1.08 3.63-1.03 3.75 1.39 3.75 1.37 0 2.5-0.45 2.5-1 0-0.55-0.68-0.77-1.5-0.5-1.26 0.42-1.41-0.42-0.91-5.25 0.32-3.16 0.13-6.87-0.43-8.25-0.81-2-0.91-1.51-0.48 2.5zm-213.56 2.92c-0.07 1.49 0.51 2.79 1.38 3.08 1.12 0.37 1.44-0.18 1.25-2.17-0.14-1.47-0.76-2.86-1.38-3.09-0.65-0.23-1.19 0.71-1.25 2.18zm221.88 0.58c0 1.1 0.45 1.78 1 1.5 0.55-0.27 1-1.17 1-2 0-0.82-0.45-1.5-1-1.5-0.55 0-1 0.9-1 2zm-68.01 1.5c-0.05 1.1 0.64 2.68 1.51 3.5 1.41 1.33 1.59 1.33 1.56 0-0.01-0.82-0.7-2.4-1.51-3.5l-1.49-2zm8.52 0.17c-0.46 0.36-0.78 1.6-0.72 2.75 0.11 1.86 0.29 1.92 1.72 0.58 0.87-0.82 1.56-2.06 1.54-2.75-0.02-0.69-0.42-1.25-0.88-1.25-0.46 0-1.21 0.3-1.66 0.67zm-95.36 2.26c-0.09 1.24 0.46 2.07 1.36 2.07 0.82 0 1.56-0.26 1.64-0.57 0.08-0.31-0.53-1.25-1.36-2.07-1.33-1.34-1.51-1.27-1.64 0.57zm-68.94 1.07c-0.98 1.63-0.93 2.09 0.3 2.5 0.82 0.28 1.72 0.5 2 0.5 0.27 0 0.53-0.79 0.57-1.75 0.06-1.5 0.19-1.46 0.93 0.25 0.84 1.96 0.86 1.95 1.16-0.14 0.19-1.33-0.36-2.38-1.43-2.75-0.95-0.34-1.87-0.61-2.03-0.61-0.17 0-0.84 0.9-1.5 2zm17.46-1.5c-0.36 0.28-0.1 1.59 0.59 2.91 0.96 1.87 1.64 2.21 3 1.5 1.66-0.87 1.66-1.01 0-2.94-0.97-1.12-2.02-2.02-2.34-2-0.32 0.02-0.88 0.26-1.25 0.53zm66.29 1.03c0.02 0.81 0.72 1.47 1.55 1.47 0.82 0 1.47-0.4 1.45-0.89-0.03-0.49-0.72-1.15-1.55-1.47-0.92-0.35-1.48-0.01-1.45 0.89zm70.5 2.45c-1.81 1.94-1.79 1.97 1.79 1.75 3.25-0.21 3.5-0.41 2.36-1.98-0.69-0.96-1.5-1.75-1.78-1.75-0.29 0-1.36 0.89-2.37 1.98zm10.5-0.76c-0.75 0.65-1.27 1.43-1.16 1.73 0.11 0.3 1.1 0.66 2.2 0.8 1.1 0.14 2.23-0.2 2.51-0.75 0.27-0.55-0.11-1.44-0.85-1.98q-1.35-0.97-2.7 0.2zm58.05 0.53c0 1.2 0.78 1.75 2.5 1.75 1.37 0 2.5-0.56 2.5-1.25 0-0.69-0.45-1.47-1-1.75-0.55-0.27-1 0.18-1 1 0 0.83-0.45 1.28-1 1-0.55-0.27-0.83-0.95-0.63-1.5 0.21-0.55-0.01-1-0.5-1-0.48 0-0.87 0.79-0.87 1.75zm-137 0.25c-2.37 0.76-2.33 0.81 0.75 0.9 1.78 0.06 3.25-0.35 3.25-0.9 0-0.55-0.34-0.95-0.75-0.9-0.42 0.06-1.88 0.46-3.25 0.9zm-17.85 0.69c0.91 0.26 2.26 0.24 3-0.03 0.74-0.28 0-0.48-1.65-0.46-1.65 0.02-2.26 0.24-1.35 0.49z"/>
		<path id="chest" class="s2" d="m37.5 11.57c-0.9 0.87-1.59 2.55-1.53 3.75 0.1 2.01 0.22 1.97 1.57-0.57 1.07-2.01 2.22-2.75 4.31-2.75 1.96 0 3.19 0.7 3.94 2.25 1.01 2.1 1.09 2.11 1.16 0.25 0.05-1.1-0.49-2.57-1.18-3.27-0.7-0.69-2.48-1.26-3.95-1.25-1.47 0.01-3.42 0.73-4.32 1.59zm67.55-0.93c-0.89 0.32-1.37 1.66-1.25 3.44 0.11 1.61 0.99 3.82 1.95 4.93 0.96 1.1 2.43 2.02 3.25 2.03 0.83 0 2.63-1.14 4-2.55 2.13-2.18 2.35-2.96 1.48-5.27-0.81-2.18-1.71-2.76-4.5-2.91-1.91-0.11-4.13 0.04-4.93 0.33zm79.42 2.78c-1.61 1.16-1.99 2.68-2.09 8.25-0.06 3.76-0.62 8.07-1.25 9.58-0.62 1.51-1.13 2.98-1.13 3.25 0 0.27 1.69 0.39 3.75 0.25 3.18-0.21 3.79-0.63 4.03-2.75 0.16-1.38-0.18-3.06-0.75-3.75-0.57-0.69-0.8-2.26-0.51-3.5 0.29-1.27 2.03-3.01 4-4 1.91-0.96 4.16-1.52 4.98-1.25 0.82 0.27 1.5 1.4 1.5 2.5 0 1.1 0.45 2.23 1 2.5 0.56 0.28 1-0.83 1-2.5 0-2.18-1.03-3.96-3.75-6.5-2.23-2.07-4.78-3.49-6.28-3.5-1.38 0-3.41 0.64-4.5 1.42zm60.07-0.02c-1.47 1.08-2.09 3.23-2.64 9.25-0.4 4.32-0.99 8.86-1.31 10.1-0.54 2.04-0.24 2.25 3.16 2.23 2.06-0.01 4.2 0.42 4.75 0.95q0.99 0.94 1-0.88c0-1.02-0.41-1.56-0.91-1.2-0.51 0.36-0.73-0.19-0.5-1.22 0.29-1.32 1.5-1.98 4.16-2.25 2.06-0.21 4.09-0.55 4.5-0.76 0.41-0.2 1.11-2.11 1.56-4.25 0.5-2.39 0.39-4.82-0.27-6.37-0.6-1.37-2.53-3.5-4.31-4.73-1.78-1.23-4.14-2.24-5.26-2.25-1.11-0.01-2.88 0.61-3.93 1.38zm-136.29 12.1c0.01 2.39 0.2 2.99 0.45 1.5 0.24-1.37 0.23-3.17-0.02-4-0.25-0.82-0.44 0.3-0.43 2.5zm0.73 10.8c0.47 4.16 0.47 4.16 0.87 0.82 0.22-1.85 0.01-3.74-0.47-4.19-0.5-0.47-0.67 1-0.4 3.37zm85.46-0.05c-0.36 0.69-0.09 1.7 0.6 2.25 0.93 0.74 1.02 0.65 0.36-0.36q-0.89-1.36 0.6-2.24c0.89-0.52 1.01-0.88 0.3-0.88-0.66-0.01-1.5 0.54-1.86 1.23zm57.64 5.5c-0.04 2.34 0.26 4.43 0.67 4.65 0.41 0.22 0.6-1.24 0.43-3.25-0.18-2.01-0.48-4.1-0.67-4.65-0.2-0.55-0.39 0.91-0.43 3.25zm-150.65-1.15c0.35 0.86 1.15 1.11 2.08 0.65 0.83-0.41 1.24-0.98 0.9-1.25-0.33-0.27-1.26-0.57-2.07-0.65-0.9-0.09-1.25 0.4-0.91 1.25zm-71.31 0.65c-0.07 0.96 0.33 1.98 0.88 2.25 0.55 0.27 0.66 1.06 0.25 1.74-0.54 0.89-0.33 0.99 0.75 0.35 1.05-0.62 1.82-0.34 2.56 0.95 0.59 1.01 1.15 1.31 1.25 0.65 0.11-0.65-0.95-1.98-2.34-2.94-1.39-0.96-2.69-2.42-2.88-3.25-0.26-1.09-0.39-1.02-0.47 0.25zm9.63 7.39c0.69 0.2 1.25 1.26 1.25 2.36 0 1.4-0.75 2.08-2.49 2.25q-2.48 0.25-2-1c0.27-0.69 0.15-1.43-0.26-1.65-0.41-0.22-0.72 0.57-0.69 1.75 0.04 1.18-0.26 2.82-0.66 3.65-0.4 0.83-0.08 2.4 0.71 3.5 0.78 1.1 1.42 1.44 1.41 0.75-0.01-0.69-0.47-1.48-1.02-1.75q-1-0.5 0-2.5c0.55-1.1 1.9-2 3-2 1.87 0 1.98 0.58 1.75 8.91-0.14 4.89 0.09 8.72 0.5 8.5 0.41-0.23 0.71-3.22 0.67-6.66-0.04-3.44-0.04-7.26 0-8.5 0.05-1.53 0.8-2.37 2.33-2.61l2.25-0.37c-3.79-0.23-4.5-0.9-4.5-2.27 0-1.1 0.56-2.16 1.25-2.36 0.69-0.19-0.1-0.35-1.75-0.35-1.65 0-2.44 0.16-1.75 0.35zm140.65 2.5c-1.89 2.13-1.89 2.14 0.35 0.75 1.24-0.76 2.26-1.73 2.25-2.14 0-0.41-0.16-0.75-0.35-0.75-0.2 0-1.21 0.96-2.25 2.14zm9.7 0.4q-1.38 1.45-0.25 1.46c0.63 0 1.31 0.79 1.5 1.75 0.2 0.96 0.36 0.29 0.36-1.5 0-1.79-0.04-3.23-0.1-3.21-0.06 0.02-0.74 0.69-1.51 1.5zm-81.91 5.96c0.03 1.9 0.21 2.27 0.49 1 0.24-1.1 0.23-2.45-0.04-3-0.26-0.55-0.47 0.35-0.45 2zm91.04 1.5c0 1.92 0.21 2.83 0.46 2 0.25-0.83 0.25-2.4 0-3.5-0.25-1.1-0.46-0.42-0.46 1.5zm4.79-2.25c0 0.41 0.34 1.36 0.75 2.11 0.4 0.74 1.2 1.19 1.77 1 0.58-0.2 0.25-1.13-0.75-2.11-0.98-0.96-1.78-1.41-1.77-1zm-28.96 4.5l-1.34 2.25c3.37-3.1 4.33-4.11 4.31-4.25-0.02-0.14-0.39-0.25-0.83-0.25-0.44 0-1.4 1.01-2.14 2.25zm-128.51 2.75c-0.3 0.55 0.12 1.45 0.95 2q1.5 1 2 0c0.27-0.55-0.18-1-1-1-0.83 0-1.29-0.45-1.04-1 0.26-0.55 0.28-1 0.05-1-0.23 0-0.66 0.45-0.96 1zm204.7 6.5c0.01 2.39 0.2 2.99 0.45 1.5 0.24-1.37 0.23-3.17-0.02-4-0.25-0.83-0.44 0.3-0.43 2.5zm-84.92 2.79c-0.36 0.68-0.25 0.86 0.26 0.42 0.5-0.43 1.45 0.24 2.1 1.5l1.19 2.29c-0.04-3.45-0.69-4.66-1.48-4.93-0.78-0.27-1.71 0.06-2.07 0.72zm-52.87 6.86c-0.69 0.95-0.61 1.12 0.29 0.59 0.87-0.51 1.29 0.1 1.39 2.01 0.11 2.33 0.18 2.39 0.42 0.38 0.16-1.3-0.03-2.8-0.42-3.33-0.44-0.6-1.09-0.46-1.68 0.35zm-14.15 6.35c0.01 3.3 0.19 4.42 0.41 2.5 0.22-1.92 0.22-4.62-0.01-6-0.22-1.37-0.41 0.2-0.4 3.5zm19.66 1.75c0.02 1.51 0.48 2.53 1.03 2.25 0.55-0.28 0.89-1.13 0.75-1.9-0.14-0.78-0.6-1.79-1.03-2.25-0.43-0.47-0.76 0.39-0.75 1.9zm-74.23 1.25c0.51 2.32 0.74 2.55 1.02 1 0.2-1.1-0.09-2.45-0.65-3-0.7-0.68-0.81-0.03-0.37 2zm203.67 7.75c0.32 0.96 0.14 1.75-0.41 1.75-0.55 0-0.95 1.24-0.88 2.75 0.08 2.1 0.23 2.27 0.6 0.75 0.27-1.1 0.87-2.45 1.33-3 0.46-0.55 0.37-1.67-0.2-2.5-0.87-1.25-0.94-1.21-0.44 0.25zm-146.41 0.95c-0.77 0.66-1.26 2.12-1.08 3.25 0.31 2.02 0.32 2.02 0.8 0.05 0.27-1.1 0.93-2.56 1.46-3.25 0.53-0.69 0.79-1.25 0.59-1.25-0.2 0-1 0.54-1.77 1.2zm-49.81 7.3c0.03 1.9 0.21 2.27 0.49 1 0.24-1.1 0.23-2.45-0.04-3-0.26-0.55-0.47 0.35-0.45 2zm64.08 1.5c0 2.47 0.2 3.38 0.44 2 0.23-1.37 0.23-3.4 0-4.5-0.24-1.1-0.44 0.03-0.44 2.5zm-85.4-0.25c-0.07 0.41-0.18 1.76-0.25 2.99-0.06 1.24 0.22 2.25 0.63 2.25 0.41 0.01 0.75-1.34 0.75-2.99 0-1.65-0.22-3-0.5-3-0.27 0-0.56 0.34-0.63 0.75zm1.21 7c-0.04 0.69-0.34 2.04-0.66 3-0.54 1.67-0.52 1.67 0.5 0 0.6-0.96 0.89-2.31 0.66-3-0.34-1-0.44-1-0.5 0zm84.15 7.25c0 1.92 0.21 2.83 0.46 2 0.25-0.83 0.25-2.4 0-3.5-0.25-1.1-0.46-0.42-0.46 1.5zm132.21 5.25c-0.36 0.69-0.15 1.7 0.47 2.25 0.79 0.71 1.12 0.34 1.11-1.25-0.01-1.24-0.22-2.25-0.47-2.25-0.25 0-0.75 0.56-1.11 1.25zm-148.61 0.83c-0.73 0.49-0.88 0.93-0.33 0.98 0.55 0.05 1.79 0.28 2.75 0.52 0.96 0.23 1.73 0.02 1.7-0.47-0.02-0.49-0.66-1.13-1.41-1.41-0.76-0.28-1.97-0.11-2.71 0.38z"/>
		<path id="shoulders" class="s3" d="m37.35 16.2c-0.61 1.94-0.69 4.23-0.2 5.55 0.68 1.79 1.62 2.25 4.6 2.24 3.12 0 3.96-0.47 4.99-2.75 0.69-1.51 0.85-2.97 0.37-3.24-0.48-0.27-1.05-1.4-1.25-2.5-0.28-1.48-1.3-2.08-3.93-2.3-3.23-0.27-3.64-0.01-4.58 3zm65.67 1.8c-0.03 0.82 0.37 1.95 0.88 2.5 0.51 0.55 1.09 2.13 1.3 3.5 0.34 2.38 0.39 2.35 0.91-0.5 0.38-2.08 0-3.62-1.25-5-1.39-1.55-1.8-1.66-1.84-0.5zm9.33 1.75c-0.58 0.96-0.74 2.65-0.37 3.75 0.59 1.72 0.85 1.52 1.87-1.5 0.65-1.93 1.18-3.61 1.17-3.75-0.01-0.14-0.38-0.25-0.82-0.25-0.44 0-1.27 0.79-1.85 1.75zm78.4 0.79c-1.51 0.8-3.17 2.25-3.69 3.21-0.62 1.16-0.48 3.11 0.41 5.75 0.74 2.2 1.16 4.34 0.94 4.75-0.23 0.41-1.54 0.75-2.91 0.75-1.38 0-2.5 0.45-2.5 1 0 0.55 0.56 1.01 1.25 1.02 0.69 0.01 2.15-0.65 3.25-1.47 1.1-0.82 2.9-1.49 4-1.49 1.1 0 2.78-0.8 3.72-1.78 0.95-0.98 1.74-2.34 1.75-3.03 0.02-0.69 0.59-1.42 1.28-1.62 1-0.29 1-0.79 0-2.5-0.69-1.17-1.14-2.76-1.02-3.52 0.13-0.77-0.54-1.67-1.5-2-0.95-0.34-1.84-0.59-1.98-0.57-0.14 0.02-1.49 0.7-3 1.5zm-157.25 8.89l-2 1.37c3.1 1.04 3.67 0.97 3.26 0.52-0.41-0.45-0.27-1.38 0.32-2.07 0.58-0.69 0.92-1.24 0.74-1.22-0.18 0.02-1.22 0.65-2.32 1.4zm64.5 0.57c-1.93 0.41-2.71 0.8-1.75 0.87 0.96 0.07 2.31 0.38 3 0.69 0.69 0.3 1.53-0.15 1.87-1 0.34-0.86 0.57-1.5 0.5-1.43-0.07 0.07-1.7 0.46-3.62 0.87zm19 1c0 0.55 0.34 0.97 0.75 0.93 0.41-0.04 1.65-0.46 2.75-0.93 1.77-0.76 1.69-0.87-0.75-0.93-1.51-0.04-2.75 0.38-2.75 0.93zm-76.03 2c0 2.01 0.25 2.25 1.26 1.25 1.03-1.01 1.03-1.49 0-2.5-1.01-1-1.26-0.76-1.26 1.25zm210.88 0.99c-0.19 1.64-0.01 2.99 0.4 3 0.41 0.01 0.75-1.34 0.75-2.99 0-1.65-0.18-3-0.4-3-0.22 0-0.56 1.35-0.75 2.99zm-56.86-0.49c0.02 0.55 1.94 2.05 4.27 3.34 2.33 1.28 3.68 1.73 3 1-0.69-0.74-0.95-1.68-0.59-2.09 0.37-0.41-0.42-0.74-1.75-0.73-1.33 0.01-2.99-0.56-3.69-1.25-0.69-0.7-1.25-0.82-1.24-0.27zm-7.74 3.87c-1.24 0.62-2.26 1.69-2.25 2.38 0 1 0.4 1 2 0 1.09-0.69 2.16-1.81 2.37-2.5 0.2-0.69 0.32-1.19 0.25-1.13-0.07 0.07-1.13 0.63-2.37 1.25zm-163.24 2.13c-0.03 2.14 0.28 2.71 1.07 2 0.79-0.72 0.81-1.57 0.05-3-0.97-1.81-1.07-1.72-1.12 1zm34.1-1c-0.72 0.97-0.76 1.68-0.11 2 0.55 0.27 1.15-0.4 1.33-1.5 0.19-1.1 0.24-2 0.12-2-0.13 0-0.73 0.67-1.34 1.5zm137.89-0.24c0.28 0.17 1.33 0.97 2.34 1.77 1.66 1.32 1.79 1.29 1.25-0.28-0.32-0.96-1.38-1.76-2.34-1.78-0.96-0.01-1.52 0.11-1.25 0.29zm-17.92 4.49c-0.06 2.46 0.28 3.13 1.42 2.75 0.97-0.32 1.19-0.94 0.63-1.75-0.47-0.69-1.11-1.92-1.42-2.75-0.3-0.83-0.59-0.04-0.63 1.75zm60.11-0.25c0.03 1.9 0.21 2.27 0.49 1 0.24-1.1 0.23-2.45-0.04-3-0.26-0.55-0.47 0.35-0.45 2zm-33.35 1.14c-0.35 0.47 0 1.42 0.76 2.11 0.77 0.69 1.39 0.91 1.38 0.5 0-0.41-0.35-1.36-0.76-2.11-0.42-0.74-1.04-0.97-1.38-0.5zm37.39 0.36c0.28 0.83 1.09 4.2 1.78 7.5 1.2 5.67 1.14 6.26-1.12 10.73-1.31 2.61-2.04 5.08-1.61 5.5 0.43 0.43 0.74 0.1 0.7-0.73-0.04-0.83 0.65-2.17 1.52-3 0.87-0.83 1.57-2.29 1.54-3.25-0.02-1.01 0.7-1.76 1.71-1.77 1.06 0 1.33-0.3 0.67-0.75-0.6-0.4-1.67-3.65-2.39-7.23-0.72-3.58-1.77-6.95-2.32-7.5q-1.01-1-0.48 0.5zm18.32 2c-0.3 1.1-0.11 2.79 0.42 3.75 0.77 1.38 0.98 0.97 1-2 0.02-2.06-0.17-3.75-0.42-3.75-0.24 0-0.69 0.9-1 2zm-152.31 0.35c-0.74 0.81-0.67 2.34 0.24 5.15l1.29 4c0.74-6.2 0.63-8.52 0.24-9.15-0.54-0.86-0.98-0.86-1.77 0zm68.99 3.65c0 1.92 0.21 2.83 0.46 2 0.25-0.83 0.25-2.4 0-3.5-0.25-1.1-0.46-0.42-0.46 1.5zm14.73 3.5c0.01 3.3-0.2 10.16-0.47 15.25-0.27 5.09-0.71 9.7-0.99 10.25-0.27 0.55-0.11 2.01 0.36 3.25 0.64 1.68 1.04 0.1 1.58-6.25 0.39-4.67 0.68-12.78 0.62-18-0.05-5.23-0.32-9.73-0.6-10-0.29-0.27-0.51 2.2-0.5 5.5zm15.04-2.5c0 1.65 0.34 3.18 0.75 3.4 0.41 0.22 0.61-1.13 0.44-3-0.17-1.87-0.51-3.4-0.75-3.4-0.24 0-0.44 1.35-0.44 3zm-79.07-1c-0.01 0.83 0.75 2.17 1.69 3 1.59 1.39 1.61 1.32 0.41-1-0.72-1.38-1.48-2.73-1.69-3-0.22-0.27-0.4 0.17-0.41 1zm-69.38 1c-0.3 0.55-1 0.77-1.55 0.5-0.55-0.27-1.01 0.51-1.03 1.75-0.01 1.24 0.1 2.02 0.26 1.75 0.16-0.27 1.13-1.51 2.15-2.75 1.03-1.24 1.61-2.25 1.29-2.25-0.31 0-0.82 0.45-1.12 1zm29.48 1c-0.81 1.57-0.71 2 0.47 2 0.83 0 1.5-0.89 1.5-2 0-1.1-0.21-2-0.47-2-0.26 0-0.94 0.9-1.5 2zm170.47 2.64c-0.55 2.83-0.77 4.96-0.5 4.73 0.27-0.23 1.44 1.51 2.58 3.86 1.15 2.35 2.17 6.3 2.28 8.77 0.11 2.47 0.42 4.72 0.7 5 0.27 0.28 0.48-1.64 0.47-4.25-0.02-2.61-0.91-6.66-1.99-9-1.08-2.34-2.09-6.5-2.25-9.25l-0.29-5zm8.2-2.89c-0.27 0.96-0.09 2.42 0.39 3.25 0.63 1.08 0.88 0.59 0.89-1.75 0.01-1.79-0.16-3.25-0.38-3.25-0.23 0-0.63 0.78-0.9 1.75zm-85.52 1.29c-0.65 1.08-0.95 2.18-0.68 2.46 0.28 0.27 0.95-0.4 1.5-1.5 0.55-1.1 0.86-2.21 0.68-2.46-0.18-0.25-0.85 0.43-1.5 1.5zm54.85-0.54c0 1.1-0.57 2.58-1.26 3.3-1.04 1.07-0.94 1.16 0.52 0.5 0.98-0.44 1.96-1.25 2.16-1.8 0.21-0.55-0.03-1.68-0.52-2.5-0.73-1.23-0.9-1.13-0.9 0.5zm-143.11 1.02c-1.05 1.15-1.09 1.55-0.17 1.52 0.69-0.02 1.48-0.49 1.75-1.04 0.28-0.55 0.35-1.24 0.17-1.53-0.18-0.29-0.97 0.18-1.75 1.05zm6.27 0.98c0.03 1.9 0.21 2.26 0.49 1 0.24-1.1 0.23-2.45-0.04-3-0.26-0.55-0.47 0.35-0.45 2zm140.98-0.25c-0.61 0.72-0.7 1.88-0.22 2.75 0.63 1.14 0.93 0.84 1.25-1.25 0.23-1.52 0.33-2.75 0.22-2.75-0.11 0-0.67 0.56-1.25 1.25zm11.68-0.75c-0.05 0.55-0.04 3.36 0.03 6.25 0.06 2.88-0.22 5.27-0.63 5.29-0.41 0.03-1.55-0.99-2.52-2.25-1.6-2.08-1.74-2.11-1.5-0.33 0.15 1.09 1.4 2.52 2.77 3.19 2.08 1.02 2.97 0.94 5.26-0.47 1.52-0.92 2.76-2.02 2.75-2.43 0-0.42-0.35-0.74-0.76-0.73-0.41 0.01-1.57 0.8-2.58 1.75-1.75 1.66-1.81 1.51-1.5-3.95 0.18-3.12-0.02-6.04-0.45-6.5-0.43-0.45-0.82-0.37-0.87 0.18zm10.66 0.75c0.23 0.68 1.22 1.62 2.2 2.07 1.66 0.77 1.68 0.68 0.21-1.25-0.87-1.14-1.86-2.07-2.2-2.07-0.35 0-0.44 0.56-0.21 1.25zm-153.66 8.31c-0.19 1.41-0.01 2.76 0.4 3 0.41 0.24 0.75-0.91 0.75-2.56 0-1.65-0.18-3-0.4-3-0.22 0-0.56 1.15-0.75 2.56zm10.71 3.19c0.24 3.43-0.01 7.15-0.56 8.25q-1 2 0 2.5c0.55 0.27 1-0.18 1-1 0-0.83 0.49-1.62 1.1-1.75 0.76-0.18 0.62-2.38-0.45-7.25l-1.53-7zm63.22-2.75c-0.84 1.92-1.78 5.75-2.08 8.5-0.36 3.22-0.24 4.46 0.35 3.5 0.51-0.83 0.94-3.08 0.96-5 0.02-1.93 0.73-4.18 1.57-5 0.84-0.83 1.34-2.4 1.12-3.5-0.33-1.65-0.67-1.38-1.92 1.5zm17.3-1.25c-0.04 1.23-0.77 2.58-1.62 3-0.84 0.41-1.78 1.42-2.07 2.25-0.31 0.88 0.42 0.57 1.79-0.76l2.32-2.25c1.9 3.49 2.61 6.31 2.8 8.51l0.36 4c0.23-7.12-0.51-10.68-1.61-13-1.49-3.17-1.91-3.54-1.97-1.75zm-148.74 1.33c-0.85 1.07-0.66 2.26 0.77 4.92 1.3 2.39 1.86 2.86 1.77 1.5-0.06-1.1-0.41-3.31-0.77-4.92-0.53-2.36-0.86-2.64-1.77-1.5zm45.74 5.66c-0.66 3.72-1.02 9.01-0.82 11.76 0.38 4.99 0.38 4.99 0.54-1 0.16-5.67 0.25-5.89 1.76-4 1.55 1.94 1.57 1.93 0.89-0.5-0.38-1.38-0.8-3.85-0.94-5.5-0.14-1.65 0.14-3.79 0.62-4.75 0.48-0.98 0.49-1.98 0.01-2.26-0.47-0.27-1.4 2.54-2.06 6.25zm-66.47-4.24c-0.33 0.82-0.61 2.17-0.61 3 0 1.33 0.17 1.33 1.5 0 0.82-0.83 1.55-1.93 1.6-2.45 0.06-0.51-0.34-1.19-0.88-1.49-0.55-0.3-1.27 0.12-1.61 0.94zm238.39 1.24c1.37 1.73 2.84 3.17 3.25 3.2 0.41 0.03 0.54-0.51 0.29-1.19-0.25-0.69-1.71-2.13-3.25-3.2l-2.79-1.95zm-36.43 1.01c-0.32 0.96-0.36 1.86-0.08 2 0.28 0.13 0.89-0.65 1.34-1.75 0.46-1.1 0.5-2 0.09-2-0.41 0-1.02 0.78-1.35 1.75zm-62.86 0.16c-0.4 0.61-0.06 1.09 0.79 1.09 0.82 0 1.61 0.45 1.75 1.01 0.14 0.55 0.88-0.01 1.66-1.25 1.21-1.95 1.21-2.09 0-1.04-1 0.87-1.72 0.92-2.45 0.16-0.73-0.75-1.25-0.74-1.75 0.03zm41.78 2.04c0.45 0.91 1.02 1.14 1.4 0.55 0.35-0.55 1.08-1.34 1.62-1.75 0.54-0.42-0.09-0.66-1.4-0.55-1.79 0.15-2.2 0.59-1.62 1.75zm-171.99 4.59c0.62 2.06 1.28 2.87 1.73 2.14 0.41-0.66 0.79 0.38 0.86 2.32 0.13 3.4 0.15 3.38 1.05-1 0.51-2.48 1.14-4.84 1.39-5.25 0.26-0.42-0.43-0.53-1.53-0.25-1.1 0.27-2.56 0.1-3.25-0.39-0.98-0.69-1.04-0.17-0.25 2.43zm200.5 0.46c0 2.2 0.22 4 0.5 4 0.27 0 0.61-1.8 0.75-4 0.14-2.2-0.09-4-0.5-4-0.41 0-0.75 1.8-0.75 4zm-185.71 2.5c0 2.83 0.19 3.69 0.42 2 0.23-1.65 0.22-3.9-0.01-5-0.24-1.1-0.42 0.25-0.41 3zm54.21-2.84c-0.46 0.37-0.71 2.06-0.56 3.75l0.26 3.09c1.24-5.42 1.49-7.11 1.36-7.25-0.12-0.14-0.6 0.05-1.06 0.41zm143 1c-0.46 0.37-0.76 1.49-0.67 2.5 0.09 1.01 0.62 1.84 1.17 1.84 0.55 0 0.94-1.13 0.87-2.5-0.06-1.38-0.21-2.5-0.33-2.5-0.11 0-0.58 0.3-1.04 0.66zm-166.76 3.84c-0.44 2.03-0.33 2.67 0.37 2 0.56-0.55 0.85-1.9 0.65-3-0.28-1.55-0.51-1.32-1.02 1zm108.56 2.5c0 3.02 0.19 4.15 0.42 2.5 0.22-1.65 0.22-4.13 0-5.5-0.23-1.38-0.42-0.03-0.42 3zm-72.11 4.5c0.03 1.9 0.21 2.26 0.49 1 0.24-1.1 0.23-2.45-0.04-3-0.26-0.55-0.47 0.35-0.45 2zm72 4c0.03 1.9 0.21 2.26 0.49 1 0.24-1.1 0.23-2.45-0.04-3-0.26-0.55-0.47 0.35-0.45 2zm60.08 2.5c0 2.47 0.2 3.37 0.44 2 0.23-1.38 0.23-3.4 0-4.5-0.24-1.1-0.44 0.02-0.44 2.5zm-3.47 3.75c-0.21 3.16-0.1 6.87 0.24 8.25 0.34 1.37 0.7-1.22 0.78-5.75 0.09-4.54-0.02-8.25-0.24-8.25-0.22 0-0.58 2.58-0.78 5.75zm-198.14-2.5c-0.29 0.68-0.14 2.6 0.33 4.25 0.8 2.86 0.84 2.8 0.92-1.25 0.05-2.34-0.1-4.25-0.33-4.25-0.22 0-0.64 0.56-0.92 1.25zm-21.16 3.75c-0.34 2.47-0.48 4.59-0.31 4.7 0.17 0.12 0.65-1.63 1.07-3.88 0.42-2.25 0.55-4.37 0.31-4.71-0.25-0.34-0.73 1.41-1.07 3.89zm85.5-1.5c0 1.37 0.45 2.27 1 2 0.55-0.28 0.78-1.4 0.5-2.5-0.27-1.1-0.72-2-1-2-0.27 0-0.5 1.12-0.5 2.5zm82-1.02c-2.44 1.26-2.45 1.3-0.34 1.65q2.16 0.36 2.59-1.38c0.23-0.97 0.38-1.71 0.33-1.66-0.04 0.06-1.21 0.68-2.58 1.39zm-152.9 1.96c-0.05 1.4 0.12 2.56 0.4 2.56 0.27 0 0.72-0.9 1-2 0.27-1.1 0.1-2.26-0.4-2.56-0.49-0.31-0.94 0.59-1 2zm139.45-0.94c0.31 1.03 1.14 1.29 2.7 0.83 2.17-0.64 2.18-0.69 0.25-1.43-1.1-0.42-2.32-0.8-2.7-0.83-0.39-0.04-0.5 0.6-0.25 1.43zm5.3 3.59c-0.19 2.25-0.01 4.27 0.4 4.5 0.41 0.22 0.75-1.62 0.75-4.09 0-2.48-0.18-4.5-0.4-4.5-0.23 0-0.56 1.84-0.75 4.09zm4.42-0.09c0 2.47 0.2 3.37 0.44 2 0.23-1.38 0.23-3.4 0-4.5-0.24-1.1-0.44 0.02-0.44 2.5zm3.5 3.75c-0.85 0.97-1.25 2.52-0.9 3.48 0.48 1.33 0.87 0.91 1.66-1.75 0.57-1.92 0.97-3.48 0.9-3.48-0.07 0-0.82 0.78-1.66 1.75zm-144.5 4.25c0 2.47 0.2 3.37 0.44 2 0.23-1.38 0.23-3.4 0-4.5-0.24-1.1-0.44 0.02-0.44 2.5zm133.35-1.25c0.36 1.51 0.84 2.97 1.05 3.25 0.21 0.27 0.37-0.97 0.36-2.75-0.02-1.79-0.49-3.25-1.06-3.25-0.61 0-0.75 1.1-0.35 2.75zm69.13 8.25c-0.34 0.82-0.27 2.85 0.15 4.5 0.75 2.96 0.76 2.97 1.26 0.5 0.28-1.38 0.21-3.4-0.15-4.5-0.53-1.6-0.78-1.7-1.26-0.5zm-8.63 2.25c0.06 1.23 0.46 3.6 0.88 5.25 0.72 2.81 0.77 2.73 0.88-1.25 0.08-2.67 0.59-4.26 1.37-4.27q1.25-0.02-0.25-0.98c-0.83-0.54-1.84-0.98-2.25-0.99-0.41-0.01-0.7 1-0.63 2.24zm-53.33 6.96c0.11 0.43 0.88 0.79 1.71 0.79 0.82 0 1.68-0.34 1.9-0.75 0.23-0.42-0.54-0.77-1.71-0.79-1.17-0.02-2.02 0.32-1.9 0.75z"/>
		<path id="biceps" class="s4" d="m41 28c-0.83 0.53-1.05 0.94-0.5 0.91 0.55-0.03 1.9-0.44 3-0.91q1.98-0.86 0.5-0.91c-0.83-0.03-2.17 0.38-3 0.91zm11.55 8c-0.3 1.1-0.16 2.79 0.31 3.75 0.48 0.96 0.67 2.42 0.43 3.25-0.39 1.33-0.33 1.33 0.57 0 0.63-0.95 0.66-2.14 0.07-3.25-0.51-0.96-0.72-2.65-0.47-3.75 0.25-1.1 0.27-2 0.05-2-0.22 0-0.65 0.9-0.96 2zm67.5 0.66c-0.8 0.28-1.37 1.03-1.28 1.67 0.1 0.65 0.52 0.84 0.95 0.43 0.43-0.41 1.45-0.19 2.28 0.5 1.29 1.07 1.33 1 0.25-0.51-1-1.4-1-1.83 0-2.17 0.69-0.23 0.8-0.42 0.25-0.42-0.55 0-1.65 0.22-2.45 0.5zm131.22 5.34c0 2.48 0.2 3.38 0.44 2 0.23-1.38 0.23-3.4 0-4.5-0.24-1.1-0.44 0.02-0.44 2.5zm10.03-0.75c-0.05 1.24 0.08 1.69 0.3 1 0.22-0.69 0.96-0.94 1.65-0.56 0.94 0.52 1 0.28 0.22-1-0.57-0.93-1.27-1.69-1.55-1.69-0.29 0-0.57 1.01-0.62 2.25zm-210.69 0.5c-0.26 0.41-0.06 1.42 0.44 2.25 0.73 1.19 0.92 1.04 0.93-0.75 0.01-1.24-0.18-2.25-0.43-2.25-0.25 0-0.67 0.34-0.94 0.75zm71.38 0.75c-0.04 0.55 0.5 1.54 1.22 2.19 0.9 0.83 1.75 0.88 2.79 0.18 1.33-0.91 1.33-0.98 0-0.61-0.82 0.23-2.05-0.3-2.72-1.17-0.67-0.88-1.25-1.14-1.29-0.59zm-74.55 3.75c-0.36 0.69-0.15 1.7 0.47 2.25 0.79 0.71 1.12 0.34 1.11-1.25-0.01-1.24-0.22-2.25-0.47-2.25-0.25 0-0.75 0.56-1.11 1.25zm156.74 2.25c0.18 2.24 0.76 3.78 1.32 3.5 0.55-0.27 0.89-1.63 0.75-3-0.14-1.38-0.73-2.95-1.32-3.5-0.74-0.7-0.97 0.2-0.75 3zm50.4-2.5c0.22 0.27-0.15 1.17-0.82 2-0.67 0.83-0.21 0.6 1.04-0.5 1.25-1.1 2.18-2.04 2.07-2.08-0.11-0.05-0.77-0.05-1.45 0-0.69 0.04-1.07 0.31-0.84 0.58zm-128.42 3.99c-0.64 1.11-1.16 2.24-1.16 2.51 0 0.27 0.67-0.17 1.5-1 0.82-0.83 1.35-1.95 1.16-2.51-0.18-0.56-0.85-0.11-1.5 1zm67.01 6.26c-0.13 2.78 0.28 3.9 1.58 4.34 1.57 0.54 1.6 0.43 0.25-1.08-1.33-1.48-1.33-1.77 0-2.57q1.48-0.9 0.25-0.92c-0.69-0.01-1.4-0.81-1.58-1.77-0.19-0.96-0.41-0.06-0.5 2zm-103.17-1.25c0 0.55-0.68 0.77-1.5 0.5-0.89-0.3-1.5 0.11-1.5 1 0 0.83 0.56 1.37 1.25 1.22 0.69-0.15 1.81-0.6 2.5-1 0.69-0.4 1.25-1.17 1.25-1.72 0-0.55-0.45-1-1-1-0.55 0-1 0.45-1 1zm116.77 0.75c0.48 1.23 0.32 1.53-0.54 1-0.68-0.41-1.22-0.41-1.22 0 0.01 0.41 1.04 1.65 2.3 2.75 1.26 1.1 1.81 1.7 1.24 1.34-0.58-0.37-1.05-0.08-1.05 0.64 0 0.73 0.77 1.13 1.75 0.91 1.32-0.29 1.63 0.1 1.25 1.61-0.28 1.1-0.05 2.22 0.5 2.5 0.55 0.28 1.22 0.05 1.5-0.5 0.27-0.55 0.05-1-0.5-1-0.55 0-0.78-0.45-0.5-1 0.27-0.55-0.4-3.02-1.5-5.5-1.1-2.48-2.43-4.5-2.95-4.5-0.53 0-0.65 0.79-0.28 1.75zm-149.77 0.25c0 0.55 0.9 0.89 2 0.75 1.1-0.14 2-0.59 2-1 0-0.41-0.9-0.75-2-0.75-1.1 0-2 0.45-2 1zm128.5-0.33c-0.46 0.36-0.69 2.28-0.52 4.25 0.28 3.09 0.37 3.2 0.67 0.83 0.19-1.51 0.8-2.52 1.35-2.25 0.55 0.27 0.93-0.4 0.85-1.5-0.08-1.1-0.46-2-0.83-2-0.38 0-1.06 0.3-1.52 0.67zm79.96 1.23c0.02 1.05 0.38 1.73 0.79 1.5 0.41-0.22 0.75-1.07 0.75-1.9 0-0.83-0.35-1.5-0.79-1.5-0.43 0-0.77 0.86-0.75 1.9zm-138.57 1.66c-0.88 1.06-0.89 1.44-0.04 1.44 0.63 0 0.95 0.34 0.72 0.75-0.24 0.41-0.04 1.42 0.44 2.25 0.48 0.83 1.04 1.28 1.23 1 0.19-0.28 0.01-1.94-0.41-3.69-0.63-2.65-0.96-2.95-1.94-1.75zm140.69-0.06c-0.37 0.96 0.14 1.68 1.42 2 1.1 0.27 2 0.05 2-0.5 0-0.55-0.45-1-1-1-0.55 0-0.83-0.45-0.62-1 0.21-0.55 0.02-1-0.42-1-0.43 0-1.05 0.67-1.38 1.5zm-245.7 1.25c-0.06 0.41-0.06 1.09 0 1.5 0.07 0.41-0.22 0.75-0.63 0.75-0.41 0-0.86 0.9-1 2-0.14 1.1 0.2 2 0.75 2 0.55 0 0.77-0.45 0.5-1-0.28-0.55-0.05-1 0.5-1 0.55 0 0.77-0.45 0.5-1-0.28-0.55-0.16-1 0.25-1 0.41 0 0.79-0.67 0.83-1.5 0.05-0.83-0.29-1.5-0.75-1.5-0.46 0-0.88 0.34-0.95 0.75zm108.67 0.25c-0.3 0.55-0.1 1.9 0.45 3 0.55 1.1 1 2.22 1 2.5 0 0.28-0.79 0.18-1.75-0.21-1.57-0.64-1.6-0.54-0.25 0.92 0.92 0.99 1.89 1.27 2.5 0.72q0.99-0.91-0.25-3.42c-0.69-1.38-1.04-2.96-0.79-3.51 0.26-0.55 0.28-1 0.05-1-0.23 0-0.66 0.45-0.96 1zm43.8-0.25c0.36 0.69 0.09 1.42-0.6 1.63-0.89 0.27-0.73 0.92 0.57 2.25 1 1.03 1.67 1.34 1.5 0.69-0.18-0.65 0.58-1.92 1.68-2.83 1.15-0.96 1.37-1.43 0.5-1.13-0.83 0.28-2.13-0.02-2.9-0.67-1.09-0.93-1.25-0.91-0.75 0.06zm-113.61 1.25c-0.31 0.83-0.19 2.17 0.27 3 0.74 1.33 1.01 1.33 2.46 0 0.89-0.83 1.56-1.95 1.5-2.5-0.07-0.55-0.35-0.33-0.63 0.5-0.4 1.22-0.74 1.12-1.77-0.5-1.04-1.64-1.37-1.73-1.83-0.5zm171.71 1.95c-0.87 1.62-1.55 3.31-1.5 3.75 0.04 0.44 0.51 0.13 1.03-0.7 0.52-0.83 1.41-1.61 1.98-1.75 0.57-0.14 1.38-0.23 1.79-0.21 0.41 0.03 0.19-0.65-0.5-1.5-1-1.23-1-1.62 0-1.96 0.96-0.33 0.97-0.44 0.02-0.5-0.68-0.04-1.94 1.25-2.82 2.87zm-146.22-0.07c-0.19 1.73 0.13 1.98 1.75 1.37 1.1-0.41 1.88-0.76 1.75-0.78-0.12-0.02-0.91-0.64-1.75-1.38-1.3-1.14-1.55-1.03-1.75 0.79zm107 1.12c0 1.92 0.21 2.83 0.46 2 0.25-0.83 0.25-2.4 0-3.5-0.25-1.1-0.46-0.42-0.46 1.5zm75.02-2.34c0.41 0.19 0.76 1.13 0.77 2.09 0.01 1.48 0.15 1.52 0.89 0.25 0.78-1.33 0.93-1.33 1.4 0 0.42 1.18 0.55 1.13 0.61-0.25 0.04-0.96-0.37-1.75-0.92-1.75-0.55 0-1.56-0.15-2.25-0.34-0.69-0.18-0.91-0.18-0.5 0zm-205.62 4.29c-0.35 0.58 0.27 1.27 1.37 1.55 1.29 0.32 1.88 0.06 1.65-0.75-0.19-0.69-0.81-1.39-1.37-1.55-0.57-0.17-1.31 0.17-1.65 0.75zm119.78 2.3c-0.3 0.69-0.38 2.15-0.17 3.25 0.26 1.38 0.52 0.99 0.85-1.25 0.27-1.79 0.34-3.25 0.17-3.25-0.17 0-0.55 0.56-0.85 1.25zm2.76 0.8c-0.94 1.57-0.88 2.05 0.33 2.45 0.82 0.28 1.78-0.06 2.12-0.75 0.48-0.95 0.83-0.89 1.46 0.25 0.64 1.13 0.79 0.97 0.63-0.67-0.12-1.2-0.44-1.99-0.71-1.76-0.28 0.23-0.99-0.01-1.58-0.53-0.72-0.62-1.49-0.27-2.25 1.01zm13.49-0.7c0.68 1.5 0.5 1.74-0.91 1.25-0.96-0.33-1.75-0.38-1.75-0.1 0 0.28 0.56 0.69 1.25 0.91 0.69 0.23 1.84 0.12 2.55-0.25 1.03-0.52 0.95-0.98-0.34-2.16-1.48-1.35-1.56-1.32-0.8 0.35zm-163.39 0.9c-0.53 0.69-1.21 1.7-1.52 2.25-0.31 0.55 0.03 1 0.75 1 0.72 0 1.13-0.34 0.9-0.75-0.22-0.41 0.08-1.42 0.67-2.25 0.59-0.83 0.86-1.5 0.61-1.5-0.25 0-0.89 0.56-1.41 1.25zm133.65-0.01c-0.73 0.64-1.23 1.52-1.12 1.96 0.11 0.44 0.99 0.64 1.95 0.44 0.96-0.2 1.86-0.87 2-1.5 0.14-0.63-0.15-1.35-0.63-1.6-0.49-0.25-1.48 0.06-2.2 0.7zm44.08 0.76c0 1.1 0.45 2 1 2 0.55 0 1.2-0.56 1.45-1.25 0.25-0.69 0.13-1.6-0.25-2.03-0.39-0.43-1.04-0.76-1.45-0.75-0.41 0.02-0.75 0.93-0.75 2.03zm-129.42 0.08c-1.06 0.56-1.84 1.67-1.75 2.47 0.09 0.8 0.84 1.67 1.67 1.95 0.82 0.28 1.35 1.06 1.16 1.75-0.18 0.69-0.13 0.8 0.11 0.25 0.25-0.55 0.84-0.33 1.32 0.5 0.74 1.27 0.88 1.23 0.89-0.25 0.01-0.96-0.54-1.74-1.23-1.73-0.87 0.02-1.05-0.89-0.6-3 0.36-1.66 0.59-3.01 0.5-2.99-0.08 0.02-1.01 0.49-2.07 1.05zm48.92 2.41c0 3.04 0.25 3.4 2 2.81 1.41-0.47 1.78-0.32 1.25 0.52-0.41 0.65-0.28 1.97 0.3 2.93 0.84 1.4 0.9 1.26 0.31-0.75-0.59-2.02-0.45-2.33 0.71-1.6 1.15 0.72 1.2 0.62 0.22-0.5-0.9-1.04-0.92-1.92-0.11-3.4 0.6-1.1 0.8-1.66 0.46-1.25-0.35 0.41-1.32 0.08-2.14-0.75-0.83-0.83-1.84-1.5-2.25-1.5-0.41 0-0.75 1.57-0.75 3.49zm94.7-2.9c0.39 0.5 0.28 1.92-0.25 3.16q-0.94 2.23 0.05 1.75c0.55-0.28 1-0.05 1 0.5 0 0.55 0.56 1.02 1.25 1.04 1 0.04 1-0.26 0-1.5-0.69-0.84-1.03-2.21-0.75-3.04 0.27-0.83-0.06-1.8-0.75-2.16-0.69-0.36-0.93-0.25-0.55 0.25zm48.26 1.24c0.02 1.01 0.55 1.8 1.16 1.75 0.62-0.04 0.85-0.75 0.52-1.58-0.46-1.15-0.25-1.26 0.87-0.5 1.09 0.74 1.28 0.67 0.73-0.25-0.41-0.69-1.32-1.25-2.03-1.25-0.7 0-1.27 0.83-1.25 1.83zm-261.56 1.92c0.72 1.23 0.66 2.18-0.19 3.2-1.03 1.23-0.94 1.27 0.54 0.25 1.35-0.93 1.52-1.65 0.75-3.2-0.55-1.1-1.25-2-1.56-2-0.3 0-0.1 0.79 0.46 1.75zm182.1 0.25c0 0.55 0.9 0.78 2 0.5 1.1-0.28 2-0.72 2-1 0-0.28-0.9-0.5-2-0.5-1.1 0-2 0.45-2 1zm-142.81 2.5c0.03 1.9 0.21 2.27 0.49 1 0.24-1.1 0.23-2.45-0.04-3-0.26-0.55-0.47 0.35-0.45 2zm162.04-0.87c0.95 1.03 1.96 1.53 2.25 1.12 0.28-0.41-0.49-1.25-1.73-1.87-2.16-1.07-2.18-1.04-0.52 0.75zm-27.23 0.96l-2.5 1.39c4.27-0.37 5.5-1.04 5.5-1.73 0-0.69-0.11-1.21-0.25-1.15-0.14 0.05-1.38 0.72-2.75 1.49zm88.13-0.59c0.2 0.55 0.78 1.11 1.29 1.25 0.5 0.14 0.96-0.31 1.01-1 0.06-0.69-0.52-1.25-1.28-1.25-0.76 0-1.22 0.45-1.02 1zm-211.9 2.17c0 1.97 0.07 2.02 0.47 0.33 0.4-1.69 0.62-1.77 1.46-0.5 0.88 1.33 0.94 1.33 0.57 0-0.24-0.83-0.9-1.65-1.46-1.83-0.57-0.19-1.04 0.71-1.04 2zm4.16-0.92c-0.4 0.7-0.31 0.93 0.2 0.51 0.5-0.4 1.5 0.05 2.22 1 1.13 1.52 1.17 1.45 0.25-0.51-0.59-1.24-1.26-2.25-1.51-2.25-0.25 0-0.77 0.56-1.16 1.25zm-24.04 0.52c-0.65 0.41 0.07 0.73 1.65 0.73 1.58 0 2.3-0.32 1.65-0.73-0.63-0.41-1.38-0.74-1.65-0.74-0.28 0-1.02 0.33-1.65 0.74zm-29.76 1.21c-0.33 0.56-0.35 1.36-0.06 1.77 0.29 0.41 0.54 0.08 0.57-0.75q0.05-1.46 0.9 0.5c0.72 1.67 0.89 1.72 1.03 0.31 0.1-0.93-0.28-1.95-0.84-2.27-0.56-0.31-1.28-0.12-1.6 0.44zm244.91 1.69c-1.1 0.88-1.33 1.34-0.5 1.03 0.82-0.32 2.15-0.04 2.95 0.61 1.23 1.01 1.27 0.92 0.25-0.56-0.94-1.37-0.93-1.84 0.05-2.17 0.69-0.23 0.8-0.44 0.25-0.47-0.55-0.03-1.9 0.67-3 1.56zm-215.93 1.08c-0.32 0.96-0.35 1.97-0.05 2.25 0.29 0.28 0.52-0.06 0.51-0.75-0.02-0.75 0.67-1.01 1.72-0.66 1.41 0.48 1.55 0.29 0.72-1-0.57-0.87-1.32-1.59-1.67-1.59-0.35 0-0.9 0.79-1.23 1.75zm74.4 5.5c-0.01 3.44 0.15 6.03 0.36 5.75 0.22-0.28 0.64-3.09 0.94-6.25 0.3-3.17 0.13-5.75-0.36-5.75-0.5 0-0.92 2.81-0.94 6.25zm76.53-4.58c-0.46 0.36-0.76 1.26-0.67 2 0.09 0.73 0.62 1.33 1.17 1.33 0.55 0 0.91-0.9 0.81-2-0.1-1.1-0.25-2-0.33-2-0.08 0-0.52 0.3-0.98 0.67zm-97.37 1.83c0.06 1.1 0.45 3.35 0.87 5l0.76 3c0.16-5.42-0.23-7.67-0.76-8.5-0.8-1.23-0.95-1.15-0.87 0.5zm-45.19 1.41c-1.1 0.64-1.15 0.99-0.19 1.46 0.69 0.35 1.51 0.52 1.83 0.38 0.31-0.14 0.4-0.8 0.19-1.47-0.24-0.77-0.92-0.91-1.83-0.37zm142.61 1.69c-0.49 0.41-0.82 1.45-0.73 2.32 0.1 1.09 0.49 1.27 1.25 0.58 0.61-0.55 0.94-1.59 0.74-2.31-0.21-0.72-0.77-0.99-1.26-0.59zm50.12 0.65c-0.27 0.69-0.09 1.92 0.4 2.75 0.68 1.13 0.9 0.83 0.91-1.25 0.01-1.51-0.17-2.75-0.4-2.75-0.22 0-0.63 0.56-0.91 1.25zm-129.69 2.5c0.01 1.24-0.43 2.25-0.98 2.25-0.55 0-1 0.67-1 1.5 0 0.83 0.45 1.28 1 1 0.55-0.28 1.06 0.51 1.13 1.75 0.06 1.24 0.46 0.22 0.88-2.25 0.42-2.48 0.35-4.95-0.14-5.5-0.57-0.63-0.9-0.16-0.89 1.25zm70.43-0.5c-0.3 0.69-0.38 2.15-0.17 3.25 0.26 1.38 0.52 0.99 0.85-1.25 0.27-1.79 0.34-3.25 0.17-3.25-0.17 0-0.55 0.56-0.85 1.25zm-149.83 1.5c-0.29 0.41 0.1 1.65 0.86 2.75 1.31 1.89 1.36 1.85 0.94-0.75-0.24-1.51-0.63-2.75-0.86-2.75-0.23 0-0.66 0.34-0.94 0.75zm212.51 1.25c0.03 0.83 0.44 2.4 0.91 3.5l0.86 2c0.08-3.1-0.33-4.67-0.86-5.5-0.86-1.33-0.96-1.33-0.91 0zm-144.34 4.67c0.29 1.55 0.71 3.05 0.92 3.33 0.21 0.28 0.42-0.71 0.46-2.19 0.04-1.48-0.37-2.98-0.92-3.33-0.61-0.4-0.79 0.44-0.46 2.19zm-56.8 0.58c-0.62 1.24-0.74 2.57-0.28 2.96 0.46 0.38 0.94-0.29 1.07-1.5 0.13-1.22 0.8-2.54 1.5-2.94 0.95-0.56 0.96-0.74 0.04-0.75-0.67-0.01-1.72 0.99-2.33 2.23zm207.88 0.92c0.09 0.45 0.62 0.83 1.17 0.83 0.55 0 1.04 1.46 1.09 3.25l0.08 3.25c1.46-4.9 1.43-6.09 0.81-6.25-0.54-0.14-0.8-0.59-0.58-1 0.23-0.41-0.3-0.79-1.16-0.83-0.87-0.05-1.5 0.29-1.41 0.75zm-138 6.5c0.09 3.48-0.06 7-0.33 7.83-0.28 0.83-0.05 1.5 0.5 1.5 0.57 0 0.99-2.91 0.98-6.75-0.01-3.71 0.46-7.24 1.04-7.83 0.74-0.77 0.55-1.09-0.65-1.09-1.44 0-1.68 0.98-1.54 6.34zm71.31 4.58c-0.08 2.13-0.57 3.53-1.14 3.25-0.62-0.31-0.73 0.36-0.29 1.75 0.58 1.83 0.44 2.06-0.74 1.25-1.07-0.74-1.25-0.67-0.71 0.25 0.41 0.69 1.19 1.03 1.74 0.75 0.55-0.28 1 0.17 1 1 0 0.83-0.45 1.28-1 1-0.55-0.28-0.78 0.17-0.5 1 0.27 0.83 1.06 1.27 1.75 0.99q1.25-0.52 0.96-5.75c-0.16-2.88-0.43-6.14-0.61-7.24-0.18-1.1-0.39-0.31-0.46 1.75zm10.24-1.5c0.07 0.96-0.44 1.64-1.13 1.5-0.69-0.14-1.25 0.2-1.25 0.75 0 0.55 0.45 1.22 1 1.5 0.55 0.28 1.45-0.4 2-1.5 0.55-1.1 1-2.45 1-3 0-0.55-0.39-1-0.87-1-0.48 0-0.81 0.79-0.75 1.75zm57.97-0.35c0.08 0.78 0.38 1.64 0.65 1.93 0.27 0.28 0.56-0.35 0.62-1.41 0.07-1.05-0.22-1.92-0.64-1.92-0.43 0-0.71 0.63-0.63 1.4zm-72.38 2.35c0.02 1.71 0.45 2.1 1.78 1.62 0.98-0.35 1.31-0.9 0.75-1.26-0.55-0.35-1.35-1.08-1.78-1.62-0.43-0.55-0.76 0.01-0.75 1.26zm-132.97 0.75c0 0.83 0.45 1.28 1 1 0.55-0.28 1-0.95 1-1.5 0-0.55-0.45-1-1-1-0.55 0-1 0.67-1 1.5zm-3 1c0 0.83 0.45 1.28 1 1 0.55-0.28 1-0.95 1-1.5 0-0.55-0.45-1-1-1-0.55 0-1 0.67-1 1.5zm-14.25 3.25c-0.29 1.14 0.2 1.84 1.41 2 1.53 0.21 1.67-0.09 0.84-1.75-0.55-1.1-1.18-2-1.4-2-0.23 0-0.61 0.79-0.85 1.75zm163.3-1.09c-0.8 0.28-1.33 1.48-1.19 2.67l0.27 2.17c1.52-3.67 2.33-4.23 3.12-3.76q1.24 0.73 0.5-0.5c-0.41-0.68-0.86-1.2-1-1.16-0.14 0.04-0.9 0.3-1.7 0.58z"/>
		<path id="triceps" class="s5" d="m109.5 21.67c-0.46 0.36-0.76 2.16-0.67 4 0.1 1.91-0.36 3.5-1.08 3.73-0.69 0.22-0.35 0.35 0.75 0.3 1.68-0.07 2-0.79 2-4.39 0-2.37-0.04-4.31-0.08-4.31-0.05 0-0.46 0.3-0.92 0.67zm-69.01 9.37c-0.27 0.53-0.25 1.3 0.04 1.71 0.29 0.41 0.51 0.19 0.5-0.5-0.02-0.69 0.65-1.03 1.47-0.75 0.83 0.27 1.48 0.32 1.45 0.11-0.02-0.22-0.7-0.65-1.51-0.96-0.8-0.31-1.68-0.13-1.95 0.39zm208.06-0.44c-0.49 0.41-0.82 1.45-0.73 2.32 0.1 1.09 0.49 1.27 1.25 0.58 0.61-0.55 0.94-1.59 0.74-2.31-0.21-0.72-0.77-0.99-1.26-0.59zm2.3 3.48c-0.19 1.69 0.1 3.31 0.65 3.6 0.55 0.29 1.45 0.01 2-0.63 0.71-0.83 0.57-1.01-0.5-0.61-1.16 0.43-1.43-0.13-1.21-2.44 0.16-1.65 0.09-3-0.15-3-0.24 0-0.6 1.39-0.79 3.08zm4.98 1.06c0.09 0.47 1.29 0.86 2.67 0.86 1.37 0 2.42-0.17 2.33-0.38-0.09-0.21-1.29-0.6-2.67-0.86-1.37-0.27-2.42-0.1-2.33 0.38zm-225.64 2.36c0.03 1.9 0.21 2.27 0.49 1 0.24-1.1 0.23-2.45-0.04-3-0.26-0.55-0.47 0.35-0.45 2zm95.55 1c-0.44 2.03-0.33 2.68 0.37 2 0.56-0.55 0.85-1.9 0.65-3-0.28-1.55-0.51-1.32-1.02 1zm116.66 1.75l-1.9 2.25c3.87-3.08 5.19-4.1 5.42-4.24 0.23-0.14-0.05-0.26-0.61-0.26-0.56 0-1.87 1.01-2.91 2.25zm-127.4 0.04c0.83 0.99 2.4 1.73 3.5 1.64l2-0.16c-3.1-0.76-4.67-1.5-5.5-2.13-1.33-1.01-1.33-0.94 0 0.65zm146.02 0.04c1.23 1.51 1.25 1.94 0.12 2.5-0.74 0.37-1.19 1.14-1 1.71 0.2 0.58 1.13 0.25 2.11-0.75 1.67-1.71 1.65-1.87-0.48-3.54-2.15-1.68-2.18-1.68-0.75 0.08zm3.72 2.17c-0.44 2.03-0.33 2.68 0.37 2 0.56-0.55 0.85-1.9 0.65-3-0.28-1.55-0.51-1.32-1.02 1zm-17.76 1c-0.02 0.55 1.12 2.12 2.52 3.5 1.4 1.37 2.55 2.27 2.56 2 0-0.27-1.14-1.85-2.53-3.5-1.39-1.65-2.54-2.55-2.55-2zm7.55 2.35l-1.82 2.65c3.71-3.44 4.53-4.64 4.21-4.87-0.32-0.24-1.39 0.76-2.39 2.22zm-196.19 4.15c0.3 0.83 0.1 1.99-0.44 2.58q-0.98 1.09 0.57 1c0.84-0.04 1.52-0.53 1.51-1.08 0-0.55-0.5-1.67-1.09-2.5-0.96-1.33-1.02-1.33-0.55 0zm-32.39 1.5c-0.83 0.83-1.26 1.52-0.98 1.54 0.29 0.03 1.12-0.65 1.85-1.5 0.73-0.84 1.17-1.54 0.98-1.54-0.2 0-1.03 0.67-1.85 1.5zm102.05 1.75c0 0.69 0.64 1.25 1.41 1.25 0.84 0 1.14-0.51 0.72-1.25-0.38-0.69-1.02-1.25-1.41-1.25-0.4 0-0.72 0.56-0.72 1.25zm109.42 0.12c0.04 0.76 0.64 1.21 1.33 1 0.69-0.2 1.03-0.82 0.75-1.37-0.28-0.55-0.88-1-1.33-1-0.46 0-0.8 0.62-0.75 1.37zm-61.06 0.62c-0.44 0.6-0.1 0.73 0.87 0.33 1.15-0.47 1.41-0.26 0.94 0.75q-0.68 1.42 0.58 0.67c0.69-0.41 1.03-1.19 0.75-1.74-0.28-0.55-0.93-1-1.45-1-0.52 0-1.28 0.44-1.69 0.99zm-67.17 3.51c0.03 1.9 0.21 2.27 0.49 1 0.24-1.1 0.23-2.45-0.04-3-0.26-0.55-0.47 0.35-0.45 2zm142.79 13.2c-0.27 2.3-0.13 3.88 0.31 3.5 0.43-0.39 0.64-2.28 0.47-4.2l-0.31-3.5zm-120.97 7.3c0 1.1 0.22 2 0.5 2 0.27 0 0.72-0.9 1-2 0.27-1.1 0.05-2-0.5-2-0.55 0-1 0.9-1 2zm120.19 3.5c0.02 1.91 0.2 2.27 0.48 1 0.25-1.1 0.23-2.45-0.03-3-0.27-0.55-0.47 0.35-0.45 2zm-154 26c0.02 1.91 0.2 2.27 0.48 1 0.25-1.1 0.23-2.45-0.03-3-0.27-0.55-0.47 0.35-0.45 2zm-50.19 13.25c0 0.42 0.67 0.75 1.5 0.75 0.82 0 1.5-0.33 1.5-0.75 0-0.41-0.68-0.75-1.5-0.75-0.83 0-1.5 0.34-1.5 0.75z"/>
		<path id="abs" class="s6" d="m40.5 12.69c1.1 0.25 2.67 0.25 3.5 0 0.83-0.25-0.08-0.46-2-0.46-1.92 0-2.6 0.21-1.5 0.46zm0.66 12c0.91 0.26 2.26 0.24 3-0.03 0.74-0.28-0.01-0.49-1.66-0.47-1.65 0.03-2.25 0.25-1.34 0.5zm144.28 27.56c-0.36 0.69-0.27 1.57 0.2 1.96 0.47 0.38 0.93-0.18 1.02-1.25 0.08-1.08-0.01-1.96-0.2-1.96-0.2 0-0.66 0.56-1.02 1.25zm49.11 4.75c-0.3 0.55-0.31 1.34-0.02 1.75 0.29 0.41 0.52 0.08 0.51-0.75-0.01-1.33 0.1-1.33 0.96 0 0.83 1.28 0.97 1.25 0.98-0.25 0.01-0.96-0.41-1.75-0.93-1.75-0.52 0-1.2 0.45-1.5 1zm16.29 3.5c-0.19 2.47 0 4.5 0.41 4.5 0.41 0 0.75-2.02 0.75-4.5 0-2.47-0.18-4.5-0.41-4.5-0.22 0-0.56 2.02-0.75 4.5zm-55.48 8.77l-1.86 2.23c3.91-3.04 4.61-3.17 4.92-2.25 0.31 0.91 0.47 0.93 0.6 0.06 0.1-0.66-0.26-1.43-0.81-1.73-0.55-0.29-1.83 0.47-2.85 1.69zm-62.11 7.27c-0.69 0.8-1.26 2.02-1.28 2.71-0.02 0.69 0.9 0.13 2.03-1.25 1.13-1.37 2.05-2.61 2.03-2.75-0.02-0.14-0.37-0.23-0.78-0.21-0.41 0.02-1.31 0.69-2 1.5zm-21.65 8.46c-0.33 1.1-0.15 2.22 0.4 2.5 0.55 0.28 1-0.62 1-2 0-1.37-0.18-2.5-0.4-2.5-0.23 0-0.68 0.9-1 2zm84.7 3c0 3.03 0.19 4.15 0.42 2.5 0.23-1.65 0.23-4.12 0-5.5-0.23-1.37-0.42-0.03-0.42 3zm1.89 3.5c0.03 1.9 0.21 2.27 0.49 1 0.24-1.1 0.23-2.45-0.04-3-0.26-0.55-0.47 0.35-0.45 2zm-1.69 9.99c0 1.27 0.34 2.14 0.75 1.91 0.41-0.22 0.64-1.03 0.5-1.8-0.14-0.78-0.47-1.64-0.75-1.92-0.27-0.28-0.5 0.53-0.5 1.81zm50.75 6.01c0.01 2.39 0.2 2.99 0.45 1.5 0.24-1.37 0.23-3.17-0.02-4-0.25-0.83-0.44 0.3-0.43 2.5zm-146.06 3c0.03 1.9 0.21 2.27 0.49 1 0.24-1.1 0.23-2.45-0.04-3-0.26-0.55-0.47 0.35-0.45 2zm0.1 11c0 2.83 0.19 3.7 0.42 2 0.23-1.65 0.23-3.9-0.01-5-0.24-1.1-0.42 0.25-0.41 3zm14.29 4c-0.32 0.83-0.13 1.72 0.42 2 0.55 0.28 1-0.4 1-1.5 0-1.1-0.19-2-0.42-2-0.22 0-0.67 0.67-1 1.5zm-79.5 1.75c-0.06 1.29-0.67 1.61-2.33 1.23-2.04-0.47-2.07-0.44-0.25 0.39 1.1 0.49 2.38 0.62 2.84 0.27 0.46-0.35 0.61-1.32 0.33-2.14-0.4-1.17-0.53-1.12-0.59 0.25z"/>
		<path id="glutes" class="s7" d="m253.08 34.75c0.04 0.96 0.27 1.19 0.5 0.5 0.23-0.7 0.97-0.92 1.67-0.51q1.24 0.73 0.5-0.5c-0.41-0.68-1.2-1.24-1.75-1.24-0.55 0-0.96 0.79-0.92 1.75zm11.6 11c-0.24 0.41-0.3 1.88-0.14 3.25 0.16 1.38 0.36 2.95 0.45 3.5 0.08 0.55 0.51 0.1 0.96-1 0.44-1.1 0.41-2.56-0.07-3.25-0.49-0.69-0.67-1.7-0.42-2.25 0.26-0.55 0.28-1 0.05-1-0.23 0-0.6 0.34-0.83 0.75zm-239.18 8.92c-0.46 0.36-0.74 1.38-0.64 2.25 0.17 1.36 0.34 1.34 1.17-0.17 0.53-0.96 0.82-1.98 0.64-2.25-0.19-0.27-0.71-0.2-1.17 0.17zm32.56 2.83c0 0.55 0.62 1.9 1.37 3 1.27 1.84 1.42 1.86 1.97 0.25 0.35-1 0.17-1.54-0.4-1.25-0.55 0.27-1.44-0.29-1.97-1.25-0.53-0.96-0.97-1.3-0.97-0.75zm28.52 2c-0.32 0.83-0.13 1.73 0.42 2 0.55 0.27 1-0.4 1-1.5 0-1.1-0.19-2-0.42-2-0.22 0-0.67 0.67-1 1.5zm89.1 3.43c-0.38 0.59-1.02 0.87-1.43 0.63-0.41-0.23-1.31 0.44-2 1.5-0.79 1.23-0.88 2.12-0.25 2.44 0.55 0.28 0.89 0.09 0.75-0.4-0.14-0.49 0.09-0.94 0.5-1 0.41-0.05 1.43-0.77 2.25-1.6 0.82-0.83 1.35-1.75 1.18-2.07-0.18-0.31-0.63-0.08-1 0.5zm-87.68 2.07c0 0.55-0.56 0.66-1.24 0.25q-1.23-0.74-0.5 0.5c0.41 0.69 1.19 1.25 1.74 1.25 0.55 0 1.12-0.67 1.27-1.5 0.15-0.83-0.08-1.5-0.5-1.5-0.42 0-0.77 0.45-0.77 1zm94.19 10.5c0.03 1.9 0.21 2.27 0.49 1 0.24-1.1 0.23-2.45-0.04-3-0.26-0.55-0.47 0.35-0.45 2zm-80.22 13.5c-0.28 1.92-0.26 4.85 0.04 6.5 0.29 1.65 0.76 2.55 1.03 2 0.28-0.55 0.26-3.47-0.04-6.5-0.48-4.92-0.59-5.13-1.03-2zm13.77 11.5c0.51 2.32 0.74 2.55 1.02 1 0.2-1.1-0.09-2.45-0.65-3-0.7-0.68-0.81-0.03-0.37 2z"/>
	</g>
</svg>